%TF.GenerationSoftware,KiCad,Pcbnew,8.0.8*%
%TF.CreationDate,2026-07-18T19:08:00+05:30*%
%TF.ProjectId,400W Amplifier,34303057-2041-46d7-906c-69666965722e,rev?*%
%TF.SameCoordinates,Original*%
%TF.FileFunction,Paste,Top*%
%TF.FilePolarity,Positive*%
%FSLAX46Y46*%
G04 Gerber Fmt 4.6, Leading zero omitted, Abs format (unit mm)*
G04 Created by KiCad (PCBNEW 8.0.8) date 2026-07-18 19:08:00*
%MOMM*%
%LPD*%
G01*
G04 APERTURE LIST*
G04 Aperture macros list*
%AMRoundRect*
0 Rectangle with rounded corners*
0 $1 Rounding radius*
0 $2 $3 $4 $5 $6 $7 $8 $9 X,Y pos of 4 corners*
0 Add a 4 corners polygon primitive as box body*
4,1,4,$2,$3,$4,$5,$6,$7,$8,$9,$2,$3,0*
0 Add four circle primitives for the rounded corners*
1,1,$1+$1,$2,$3*
1,1,$1+$1,$4,$5*
1,1,$1+$1,$6,$7*
1,1,$1+$1,$8,$9*
0 Add four rect primitives between the rounded corners*
20,1,$1+$1,$2,$3,$4,$5,0*
20,1,$1+$1,$4,$5,$6,$7,0*
20,1,$1+$1,$6,$7,$8,$9,0*
20,1,$1+$1,$8,$9,$2,$3,0*%
G04 Aperture macros list end*
%ADD10RoundRect,0.250000X-0.262500X-0.450000X0.262500X-0.450000X0.262500X0.450000X-0.262500X0.450000X0*%
%ADD11RoundRect,0.150000X-0.825000X-0.150000X0.825000X-0.150000X0.825000X0.150000X-0.825000X0.150000X0*%
%ADD12RoundRect,0.250000X0.650000X-0.325000X0.650000X0.325000X-0.650000X0.325000X-0.650000X-0.325000X0*%
%ADD13RoundRect,0.250000X0.262500X0.450000X-0.262500X0.450000X-0.262500X-0.450000X0.262500X-0.450000X0*%
%ADD14RoundRect,0.250000X0.650000X-1.000000X0.650000X1.000000X-0.650000X1.000000X-0.650000X-1.000000X0*%
%ADD15RoundRect,0.250000X0.325000X0.650000X-0.325000X0.650000X-0.325000X-0.650000X0.325000X-0.650000X0*%
%ADD16RoundRect,0.250000X-0.475000X0.250000X-0.475000X-0.250000X0.475000X-0.250000X0.475000X0.250000X0*%
%ADD17RoundRect,0.250000X1.100000X-0.500000X1.100000X0.500000X-1.100000X0.500000X-1.100000X-0.500000X0*%
%ADD18RoundRect,0.250000X-1.100000X0.325000X-1.100000X-0.325000X1.100000X-0.325000X1.100000X0.325000X0*%
%ADD19RoundRect,0.250000X-0.325000X-0.650000X0.325000X-0.650000X0.325000X0.650000X-0.325000X0.650000X0*%
%ADD20RoundRect,0.250000X-1.100000X0.500000X-1.100000X-0.500000X1.100000X-0.500000X1.100000X0.500000X0*%
%ADD21RoundRect,0.250000X0.450000X-0.262500X0.450000X0.262500X-0.450000X0.262500X-0.450000X-0.262500X0*%
%ADD22R,2.200000X2.800000*%
%ADD23R,2.800000X2.800000*%
G04 APERTURE END LIST*
D10*
%TO.C,R7*%
X122987500Y-75900000D03*
X124812500Y-75900000D03*
%TD*%
D11*
%TO.C,U1*%
X122625000Y-83355000D03*
X122625000Y-84625000D03*
X122625000Y-85895000D03*
X122625000Y-87165000D03*
X122625000Y-88435000D03*
X122625000Y-89705000D03*
X122625000Y-90975000D03*
X122625000Y-92245000D03*
X127575000Y-92245000D03*
X127575000Y-90975000D03*
X127575000Y-89705000D03*
X127575000Y-88435000D03*
X127575000Y-87165000D03*
X127575000Y-85895000D03*
X127575000Y-84625000D03*
X127575000Y-83355000D03*
%TD*%
D12*
%TO.C,C15*%
X170150000Y-99475000D03*
X170150000Y-96525000D03*
%TD*%
D13*
%TO.C,R6*%
X128412500Y-94150000D03*
X126587500Y-94150000D03*
%TD*%
%TO.C,R8*%
X118762500Y-75850000D03*
X116937500Y-75850000D03*
%TD*%
D10*
%TO.C,R4*%
X121087500Y-97800000D03*
X122912500Y-97800000D03*
%TD*%
%TO.C,R14*%
X133087500Y-92450000D03*
X134912500Y-92450000D03*
%TD*%
D14*
%TO.C,D3*%
X166300000Y-92850000D03*
X166300000Y-88850000D03*
%TD*%
D13*
%TO.C,R3*%
X128312500Y-97400000D03*
X126487500Y-97400000D03*
%TD*%
D15*
%TO.C,C14*%
X176475000Y-96000000D03*
X173525000Y-96000000D03*
%TD*%
D13*
%TO.C,R9*%
X138512500Y-85950000D03*
X136687500Y-85950000D03*
%TD*%
D10*
%TO.C,R11*%
X121187500Y-78400000D03*
X123012500Y-78400000D03*
%TD*%
D16*
%TO.C,C4*%
X117500000Y-92500000D03*
X117500000Y-94400000D03*
%TD*%
D17*
%TO.C,D1*%
X138400000Y-98450000D03*
X138400000Y-93650000D03*
%TD*%
D18*
%TO.C,C7*%
X116900000Y-78375000D03*
X116900000Y-81325000D03*
%TD*%
D10*
%TO.C,R5*%
X122937500Y-100150000D03*
X124762500Y-100150000D03*
%TD*%
D13*
%TO.C,R2*%
X113612500Y-86750000D03*
X111787500Y-86750000D03*
%TD*%
D16*
%TO.C,C11*%
X127300000Y-77450000D03*
X127300000Y-79350000D03*
%TD*%
D10*
%TO.C,R15*%
X177287500Y-98300000D03*
X179112500Y-98300000D03*
%TD*%
D13*
%TO.C,R13*%
X134912500Y-96150000D03*
X133087500Y-96150000D03*
%TD*%
D16*
%TO.C,C5*%
X117450000Y-96050000D03*
X117450000Y-97950000D03*
%TD*%
D12*
%TO.C,C10*%
X166000000Y-85675000D03*
X166000000Y-82725000D03*
%TD*%
D16*
%TO.C,C2*%
X117500000Y-84850000D03*
X117500000Y-86750000D03*
%TD*%
D19*
%TO.C,C12*%
X131325000Y-99950000D03*
X134275000Y-99950000D03*
%TD*%
D20*
%TO.C,D2*%
X146900000Y-77300000D03*
X146900000Y-82100000D03*
%TD*%
D13*
%TO.C,R10*%
X135262500Y-87950000D03*
X133437500Y-87950000D03*
%TD*%
D10*
%TO.C,R17*%
X145787500Y-90700000D03*
X147612500Y-90700000D03*
%TD*%
D21*
%TO.C,R12*%
X134500000Y-86112500D03*
X134500000Y-84287500D03*
%TD*%
D13*
%TO.C,R1*%
X113612500Y-83200000D03*
X111787500Y-83200000D03*
%TD*%
%TO.C,R16*%
X161012500Y-94000000D03*
X159187500Y-94000000D03*
%TD*%
D22*
%TO.C,J1*%
X102950000Y-97150000D03*
D23*
X112350000Y-97150000D03*
D22*
X104950000Y-89750000D03*
%TD*%
D16*
%TO.C,C3*%
X117500000Y-88550000D03*
X117500000Y-90450000D03*
%TD*%
M02*
