M48
; DRILL file {KiCad 8.0.8} date 2026-07-18T19:08:07+0530
; FORMAT={-:-/ absolute / inch / decimal}
; #@! TF.CreationDate,2026-07-18T19:08:07+05:30
; #@! TF.GenerationSoftware,Kicad,Pcbnew,8.0.8
; #@! TF.FileFunction,Plated,1,4,PTH
FMAT,2
INCH
; #@! TA.AperFunction,Plated,PTH,ViaDrill
T1C0.0118
; #@! TA.AperFunction,Plated,PTH,ComponentDrill
T2C0.0295
; #@! TA.AperFunction,Plated,PTH,ComponentDrill
T3C0.0315
; #@! TA.AperFunction,Plated,PTH,ComponentDrill
T4C0.0394
; #@! TA.AperFunction,Plated,PTH,ComponentDrill
T5C0.0433
; #@! TA.AperFunction,Plated,PTH,ComponentDrill
T6C0.0512
; #@! TA.AperFunction,Plated,PTH,ComponentDrill
T7C0.0709
%
G90
G05
T1
X4.563Y-3.7165
X4.7047Y-3.878
X4.9469Y-3.9429
X5.0787Y-3.5906
X5.0827Y-3.4685
X5.0848Y-3.2817
X5.0925Y-3.8346
X5.1565Y-3.8455
X5.2579Y-3.2395
X5.3036Y-3.7224
X5.3366Y-3.935
X5.3425Y-3.3228
X5.3563Y-3.7854
X5.3681Y-3.876
X5.3839Y-3.4311
X5.4508Y-3.6398
X5.5315Y-3.6339
X5.6083Y-3.6969
X5.6181Y-3.3583
X5.8147Y-3.6223
X5.876Y-3.6535
X6.0827Y-3.7618
X6.185Y-3.1555
X6.2598Y-3.5531
X6.4724Y-3.4961
X6.5984Y-3.0551
T2
X5.5945Y-3.4748
X5.5945Y-3.5248
X5.5945Y-3.5748
X5.8756Y-3.3437
X5.8756Y-3.3937
X5.8756Y-3.4437
X6.0063Y-2.9618
X6.0063Y-3.0118
X6.0063Y-3.0618
X6.074Y-3.4744
X6.124Y-3.4744
X6.174Y-3.4744
T3
X4.1317Y-3.2638
X4.2301Y-3.2638
X4.2421Y-4.0413
X4.3406Y-4.0413
X5.4823Y-3.1102
X5.5807Y-3.1102
X6.3196Y-3.1299
X6.418Y-3.1299
T4
X6.2067Y-4.1358
X6.502Y-4.1358
T5
X5.5947Y-3.7917
X5.5947Y-3.8917
X5.5947Y-3.9917
X5.8583Y-3.7894
X5.8583Y-3.8894
X5.8583Y-3.9894
X6.8154Y-4.2089
X6.9154Y-4.2089
X7.0154Y-4.2089
T6
X5.4508Y-4.3348
X5.6476Y-4.3348
X5.8445Y-4.3348
X7.4646Y-3.939
X7.4646Y-4.1358
T7
X7.1772Y-3.147
X7.1772Y-3.5974
M30
