%TF.GenerationSoftware,KiCad,Pcbnew,8.0.8*%
%TF.CreationDate,2026-07-18T19:08:00+05:30*%
%TF.ProjectId,400W Amplifier,34303057-2041-46d7-906c-69666965722e,rev?*%
%TF.SameCoordinates,Original*%
%TF.FileFunction,Copper,L4,Bot*%
%TF.FilePolarity,Positive*%
%FSLAX46Y46*%
G04 Gerber Fmt 4.6, Leading zero omitted, Abs format (unit mm)*
G04 Created by KiCad (PCBNEW 8.0.8) date 2026-07-18 19:08:00*
%MOMM*%
%LPD*%
G01*
G04 APERTURE LIST*
%TA.AperFunction,ComponentPad*%
%ADD10R,2.600000X2.600000*%
%TD*%
%TA.AperFunction,ComponentPad*%
%ADD11C,2.600000*%
%TD*%
%TA.AperFunction,ComponentPad*%
%ADD12R,1.600000X1.600000*%
%TD*%
%TA.AperFunction,ComponentPad*%
%ADD13C,1.600000*%
%TD*%
%TA.AperFunction,ComponentPad*%
%ADD14R,2.000000X1.905000*%
%TD*%
%TA.AperFunction,ComponentPad*%
%ADD15O,2.000000X1.905000*%
%TD*%
%TA.AperFunction,ComponentPad*%
%ADD16C,3.600000*%
%TD*%
%TA.AperFunction,ComponentPad*%
%ADD17C,2.000000*%
%TD*%
%TA.AperFunction,ComponentPad*%
%ADD18R,1.905000X2.000000*%
%TD*%
%TA.AperFunction,ComponentPad*%
%ADD19O,1.905000X2.000000*%
%TD*%
%TA.AperFunction,ComponentPad*%
%ADD20R,1.500000X1.050000*%
%TD*%
%TA.AperFunction,ComponentPad*%
%ADD21O,1.500000X1.050000*%
%TD*%
%TA.AperFunction,ComponentPad*%
%ADD22R,1.050000X1.500000*%
%TD*%
%TA.AperFunction,ComponentPad*%
%ADD23O,1.050000X1.500000*%
%TD*%
%TA.AperFunction,ViaPad*%
%ADD24C,0.600000*%
%TD*%
%TA.AperFunction,Conductor*%
%ADD25C,0.250000*%
%TD*%
%TA.AperFunction,Conductor*%
%ADD26C,0.800000*%
%TD*%
G04 APERTURE END LIST*
D10*
%TO.P,J2,1,Pin_1*%
%TO.N,/+55V*%
X138450000Y-110105000D03*
D11*
%TO.P,J2,2,Pin_2*%
%TO.N,GND*%
X143450000Y-110105000D03*
%TO.P,J2,3,Pin_3*%
%TO.N,/-55V*%
X148450000Y-110105000D03*
%TD*%
D12*
%TO.P,C9,1*%
%TO.N,/VB*%
X139250000Y-79000000D03*
D13*
%TO.P,C9,2*%
%TO.N,Net-(U1-VS)*%
X141750000Y-79000000D03*
%TD*%
D12*
%TO.P,C8,1*%
%TO.N,Net-(D2-A)*%
X160517621Y-79500000D03*
D13*
%TO.P,C8,2*%
%TO.N,/-55V*%
X163017621Y-79500000D03*
%TD*%
D12*
%TO.P,C1,1*%
%TO.N,/IN+*%
X104944888Y-82900000D03*
D13*
%TO.P,C1,2*%
%TO.N,Net-(C1-Pad2)*%
X107444888Y-82900000D03*
%TD*%
D14*
%TO.P,Q7,1,G*%
%TO.N,Net-(Q7-G)*%
X142105000Y-96310000D03*
D15*
%TO.P,Q7,2,S*%
%TO.N,/-55V*%
X142105000Y-98850000D03*
%TO.P,Q7,3,D*%
%TO.N,/SPK+*%
X142105000Y-101390000D03*
%TD*%
D10*
%TO.P,J3,1,Pin_1*%
%TO.N,/SPK+*%
X189600000Y-105050000D03*
D11*
%TO.P,J3,2,Pin_2*%
%TO.N,GND*%
X189600000Y-100050000D03*
%TD*%
D14*
%TO.P,Q6,1,G*%
%TO.N,Net-(Q6-G)*%
X148800000Y-96250000D03*
D15*
%TO.P,Q6,2,S*%
%TO.N,/SPK+*%
X148800000Y-98790000D03*
%TO.P,Q6,3,D*%
%TO.N,/+55V*%
X148800000Y-101330000D03*
%TD*%
D16*
%TO.P,L1,1,1*%
%TO.N,Net-(U1-VS)*%
X182300000Y-79935000D03*
%TO.P,L1,2,2*%
%TO.N,/SPK+*%
X182300000Y-91375000D03*
%TD*%
D17*
%TO.P,C13,1*%
%TO.N,Net-(Q1-E)*%
X157650000Y-105050000D03*
%TO.P,C13,2*%
%TO.N,/-55V*%
X165150000Y-105050000D03*
%TD*%
D18*
%TO.P,Q1,1,B*%
%TO.N,Net-(D3-A1)*%
X178190000Y-106905000D03*
D19*
%TO.P,Q1,2,C*%
%TO.N,Net-(Q1-C)*%
X175650000Y-106905000D03*
%TO.P,Q1,3,E*%
%TO.N,Net-(Q1-E)*%
X173110000Y-106905000D03*
%TD*%
D20*
%TO.P,Q3,1,E*%
%TO.N,Net-(Q2-E)*%
X149240000Y-84930000D03*
D21*
%TO.P,Q3,2,B*%
%TO.N,/HO*%
X149240000Y-86200000D03*
%TO.P,Q3,3,C*%
%TO.N,/SPK+*%
X149240000Y-87470000D03*
%TD*%
D22*
%TO.P,Q5,1,E*%
%TO.N,Net-(Q4-E)*%
X154280000Y-88250000D03*
D23*
%TO.P,Q5,2,B*%
%TO.N,/LO*%
X155550000Y-88250000D03*
%TO.P,Q5,3,C*%
%TO.N,/-55V*%
X156820000Y-88250000D03*
%TD*%
D20*
%TO.P,Q2,1,E*%
%TO.N,Net-(Q2-E)*%
X152560000Y-77770000D03*
D21*
%TO.P,Q2,2,B*%
%TO.N,/HO*%
X152560000Y-76500000D03*
%TO.P,Q2,3,C*%
%TO.N,/VB*%
X152560000Y-75230000D03*
%TD*%
D20*
%TO.P,Q4,1,E*%
%TO.N,Net-(Q4-E)*%
X142100000Y-90800000D03*
D21*
%TO.P,Q4,2,B*%
%TO.N,/LO*%
X142100000Y-89530000D03*
%TO.P,Q4,3,C*%
%TO.N,/SPK+*%
X142100000Y-88260000D03*
%TD*%
D13*
%TO.P,C6,1*%
%TO.N,GND*%
X107750000Y-102650000D03*
%TO.P,C6,2*%
%TO.N,Net-(U1-VSS)*%
X110250000Y-102650000D03*
%TD*%
D24*
%TO.N,GND*%
X119500000Y-98500000D03*
X115900000Y-94400000D03*
%TO.N,/-55V*%
X125650000Y-100150000D03*
X129350000Y-97400000D03*
X134712500Y-94550000D03*
X129000000Y-91200000D03*
X135550000Y-99950000D03*
X164400000Y-88800000D03*
%TO.N,Net-(D2-A)*%
X129100000Y-88100000D03*
X142700000Y-85300000D03*
%TO.N,Net-(U1-VS)*%
X167600000Y-77600000D03*
%TO.N,/SPK+*%
X140500000Y-92300000D03*
%TO.N,Net-(Q1-E)*%
X136050000Y-96150000D03*
X149250000Y-92800000D03*
%TO.N,/+55V*%
X130975000Y-97675000D03*
X136350000Y-98450000D03*
%TO.N,Net-(D1-A)*%
X138450000Y-92450000D03*
X136750000Y-87150000D03*
%TO.N,/HO*%
X135700000Y-84400000D03*
%TO.N,Net-(Q2-E)*%
X157100000Y-80150000D03*
X159000000Y-90250000D03*
%TO.N,Net-(Q6-G)*%
X154500000Y-95550000D03*
%TO.N,Net-(Q7-G)*%
X147694269Y-92007015D03*
X142450000Y-93900000D03*
%TO.N,Net-(U1-CSH)*%
X133550000Y-82283989D03*
X129155000Y-83355000D03*
%TD*%
D25*
%TO.N,Net-(D2-A)*%
X142700000Y-85300000D02*
X141300000Y-83900000D01*
X141300000Y-83900000D02*
X136225304Y-83900000D01*
X131200000Y-83250000D02*
X129100000Y-85350000D01*
X135575304Y-83250000D02*
X131200000Y-83250000D01*
X129100000Y-85350000D02*
X129100000Y-88100000D01*
X136225304Y-83900000D02*
X135575304Y-83250000D01*
D26*
%TO.N,Net-(U1-VS)*%
X167600000Y-77600000D02*
X169910000Y-79910000D01*
X169910000Y-79910000D02*
X182400000Y-79910000D01*
%TO.N,/SPK+*%
X139450000Y-89000000D02*
X140190000Y-88260000D01*
X144950000Y-87400000D02*
X144090000Y-88260000D01*
X140500000Y-92300000D02*
X139450000Y-91250000D01*
X149170000Y-87400000D02*
X144950000Y-87400000D01*
X140190000Y-88260000D02*
X142100000Y-88260000D01*
X149240000Y-87470000D02*
X149170000Y-87400000D01*
X144090000Y-88260000D02*
X142100000Y-88260000D01*
X139450000Y-91250000D02*
X139450000Y-89000000D01*
D25*
%TO.N,Net-(Q1-E)*%
X145750000Y-94550000D02*
X147500000Y-92800000D01*
X136050000Y-96150000D02*
X139250000Y-96150000D01*
X147500000Y-92800000D02*
X149250000Y-92800000D01*
D26*
X157650000Y-105050000D02*
X161000000Y-108400000D01*
D25*
X140850000Y-94550000D02*
X145750000Y-94550000D01*
D26*
X171615000Y-108400000D02*
X173110000Y-106905000D01*
X161000000Y-108400000D02*
X171615000Y-108400000D01*
D25*
X139250000Y-96150000D02*
X140850000Y-94550000D01*
%TO.N,Net-(D1-A)*%
X136750000Y-89700000D02*
X136750000Y-87150000D01*
X138450000Y-92450000D02*
X138450000Y-91400000D01*
X138450000Y-91400000D02*
X136750000Y-89700000D01*
D26*
%TO.N,/HO*%
X152800000Y-86200000D02*
X149240000Y-86200000D01*
X152560000Y-76500000D02*
X154400000Y-76500000D01*
X136100000Y-84800000D02*
X140927207Y-84800000D01*
X154400000Y-76500000D02*
X155950000Y-78050000D01*
X155950000Y-83050000D02*
X152800000Y-86200000D01*
X140927207Y-84800000D02*
X142327207Y-86200000D01*
X135700000Y-84400000D02*
X136100000Y-84800000D01*
X155950000Y-78050000D02*
X155950000Y-83050000D01*
X142327207Y-86200000D02*
X149240000Y-86200000D01*
D25*
%TO.N,Net-(Q2-E)*%
X159000000Y-90250000D02*
X158350000Y-89600000D01*
X158350000Y-89600000D02*
X158350000Y-86500000D01*
D26*
X154450000Y-78500000D02*
X153720000Y-77770000D01*
X153720000Y-77770000D02*
X152560000Y-77770000D01*
X152420000Y-84930000D02*
X154450000Y-82900000D01*
D25*
X158350000Y-86500000D02*
X157100000Y-85250000D01*
D26*
X149240000Y-84930000D02*
X152420000Y-84930000D01*
X154450000Y-82900000D02*
X154450000Y-78500000D01*
D25*
X157100000Y-85250000D02*
X157100000Y-80150000D01*
D26*
%TO.N,/LO*%
X143820000Y-89530000D02*
X145190000Y-90900000D01*
X142100000Y-89530000D02*
X143820000Y-89530000D01*
X154105000Y-90900000D02*
X155550000Y-89455000D01*
X155550000Y-89455000D02*
X155550000Y-88250000D01*
X145190000Y-90900000D02*
X154105000Y-90900000D01*
D25*
%TO.N,Net-(Q6-G)*%
X154500000Y-95550000D02*
X151300000Y-95550000D01*
X150600000Y-96250000D02*
X148800000Y-96250000D01*
X151300000Y-95550000D02*
X150600000Y-96250000D01*
%TO.N,Net-(Q7-G)*%
X142400000Y-93900000D02*
X142450000Y-93900000D01*
X144900000Y-93900000D02*
X146792985Y-92007015D01*
X146792985Y-92007015D02*
X147694269Y-92007015D01*
X142450000Y-93900000D02*
X144900000Y-93900000D01*
%TO.N,Net-(U1-CSH)*%
X129895000Y-83355000D02*
X130950000Y-82300000D01*
X129155000Y-83355000D02*
X129895000Y-83355000D01*
X133533989Y-82300000D02*
X133550000Y-82283989D01*
X130950000Y-82300000D02*
X133533989Y-82300000D01*
%TD*%
%TA.AperFunction,Conductor*%
%TO.N,GND*%
G36*
X190928453Y-73020185D02*
G01*
X190974208Y-73072989D01*
X190984152Y-73142147D01*
X190955127Y-73205703D01*
X190945760Y-73214855D01*
X190946015Y-73215126D01*
X190707674Y-73438941D01*
X190501734Y-73687880D01*
X190328633Y-73960645D01*
X190191074Y-74252973D01*
X190091242Y-74560221D01*
X190030704Y-74877573D01*
X190030703Y-74877580D01*
X190010419Y-75199994D01*
X190010419Y-75200005D01*
X190030703Y-75522419D01*
X190030704Y-75522426D01*
X190091242Y-75839778D01*
X190147930Y-76014244D01*
X190191075Y-76147029D01*
X190328630Y-76439349D01*
X190328632Y-76439352D01*
X190328633Y-76439354D01*
X190501734Y-76712119D01*
X190501737Y-76712123D01*
X190501738Y-76712124D01*
X190684295Y-76932798D01*
X190707674Y-76961058D01*
X190943172Y-77182204D01*
X190943182Y-77182212D01*
X191204529Y-77372092D01*
X191204547Y-77372104D01*
X191487647Y-77527739D01*
X191487655Y-77527743D01*
X191687900Y-77607025D01*
X191788027Y-77646668D01*
X192100945Y-77727012D01*
X192168186Y-77735506D01*
X192421452Y-77767502D01*
X192421461Y-77767502D01*
X192421464Y-77767503D01*
X192421466Y-77767503D01*
X192744530Y-77767503D01*
X192744532Y-77767503D01*
X192744535Y-77767502D01*
X192744543Y-77767502D01*
X192935797Y-77743340D01*
X193065051Y-77727012D01*
X193377969Y-77646668D01*
X193573321Y-77569322D01*
X193678340Y-77527743D01*
X193678344Y-77527740D01*
X193678349Y-77527739D01*
X193961455Y-77372100D01*
X194222822Y-77182206D01*
X194414006Y-77002672D01*
X194458321Y-76961058D01*
X194458322Y-76961056D01*
X194458327Y-76961052D01*
X194533457Y-76870235D01*
X194591356Y-76831129D01*
X194661208Y-76829533D01*
X194720833Y-76865955D01*
X194751303Y-76928831D01*
X194753000Y-76949277D01*
X194753000Y-111008336D01*
X194733315Y-111075375D01*
X194680511Y-111121130D01*
X194611353Y-111131074D01*
X194547797Y-111102049D01*
X194544116Y-111098728D01*
X194439825Y-111000793D01*
X194439815Y-111000785D01*
X194178468Y-110810905D01*
X194178450Y-110810893D01*
X193895350Y-110655258D01*
X193895342Y-110655254D01*
X193594974Y-110536331D01*
X193594972Y-110536330D01*
X193594971Y-110536330D01*
X193282053Y-110455986D01*
X193282050Y-110455985D01*
X193282043Y-110455984D01*
X192961545Y-110415495D01*
X192961534Y-110415495D01*
X192638466Y-110415495D01*
X192638454Y-110415495D01*
X192317956Y-110455984D01*
X192317947Y-110455986D01*
X192005025Y-110536331D01*
X191704657Y-110655254D01*
X191704649Y-110655258D01*
X191421549Y-110810893D01*
X191421531Y-110810905D01*
X191160184Y-111000785D01*
X191160174Y-111000793D01*
X190924676Y-111221939D01*
X190718736Y-111470878D01*
X190545635Y-111743643D01*
X190545632Y-111743647D01*
X190545632Y-111743649D01*
X190483676Y-111875313D01*
X190408076Y-112035971D01*
X190308244Y-112343219D01*
X190247706Y-112660571D01*
X190247705Y-112660578D01*
X190227421Y-112982992D01*
X190227421Y-112983003D01*
X190247705Y-113305417D01*
X190247706Y-113305424D01*
X190308244Y-113622776D01*
X190331443Y-113694175D01*
X190408077Y-113930027D01*
X190545632Y-114222347D01*
X190545634Y-114222350D01*
X190545635Y-114222352D01*
X190718736Y-114495117D01*
X190718739Y-114495121D01*
X190718740Y-114495122D01*
X190846999Y-114650161D01*
X190924676Y-114744056D01*
X190995015Y-114810108D01*
X191030409Y-114870349D01*
X191027617Y-114940163D01*
X190987523Y-114997384D01*
X190922858Y-115023845D01*
X190910131Y-115024500D01*
X105190972Y-115024500D01*
X105123933Y-115004815D01*
X105078178Y-114952011D01*
X105068234Y-114882853D01*
X105097259Y-114819297D01*
X105106089Y-114810107D01*
X105120166Y-114796886D01*
X105158327Y-114761052D01*
X105364258Y-114512124D01*
X105537366Y-114239349D01*
X105674921Y-113947029D01*
X105774755Y-113639774D01*
X105835291Y-113322430D01*
X105836361Y-113305424D01*
X105855577Y-113000005D01*
X105855577Y-112999994D01*
X105835292Y-112677580D01*
X105835291Y-112677573D01*
X105835291Y-112677570D01*
X105774755Y-112360226D01*
X105674921Y-112052971D01*
X105537366Y-111760651D01*
X105438102Y-111604236D01*
X105364261Y-111487880D01*
X105350192Y-111470874D01*
X105158327Y-111238948D01*
X105158325Y-111238946D01*
X105158321Y-111238941D01*
X104922823Y-111017795D01*
X104922813Y-111017787D01*
X104661466Y-110827907D01*
X104661448Y-110827895D01*
X104378348Y-110672260D01*
X104378340Y-110672256D01*
X104077972Y-110553333D01*
X104077970Y-110553332D01*
X104077969Y-110553332D01*
X103765051Y-110472988D01*
X103765048Y-110472987D01*
X103765041Y-110472986D01*
X103444543Y-110432497D01*
X103444532Y-110432497D01*
X103121464Y-110432497D01*
X103121452Y-110432497D01*
X102800954Y-110472986D01*
X102800945Y-110472988D01*
X102488023Y-110553333D01*
X102187655Y-110672256D01*
X102187647Y-110672260D01*
X101904547Y-110827895D01*
X101904529Y-110827907D01*
X101643182Y-111017787D01*
X101643172Y-111017795D01*
X101407670Y-111238946D01*
X101277543Y-111396242D01*
X101219644Y-111435349D01*
X101149792Y-111436945D01*
X101090166Y-111400523D01*
X101059697Y-111337647D01*
X101058000Y-111317201D01*
X101058000Y-108757135D01*
X136649500Y-108757135D01*
X136649500Y-111452870D01*
X136649501Y-111452876D01*
X136655908Y-111512483D01*
X136706202Y-111647328D01*
X136706206Y-111647335D01*
X136792452Y-111762544D01*
X136792455Y-111762547D01*
X136907664Y-111848793D01*
X136907671Y-111848797D01*
X137042517Y-111899091D01*
X137042516Y-111899091D01*
X137049444Y-111899835D01*
X137102127Y-111905500D01*
X139797872Y-111905499D01*
X139857483Y-111899091D01*
X139992331Y-111848796D01*
X140107546Y-111762546D01*
X140193796Y-111647331D01*
X140244091Y-111512483D01*
X140250500Y-111452873D01*
X140250499Y-110104995D01*
X141644953Y-110104995D01*
X141644953Y-110105004D01*
X141665113Y-110374026D01*
X141665113Y-110374028D01*
X141725142Y-110637033D01*
X141725148Y-110637052D01*
X141823709Y-110888181D01*
X141823708Y-110888181D01*
X141958600Y-111121818D01*
X142012294Y-111189150D01*
X142012295Y-111189150D01*
X142848958Y-110352487D01*
X142873978Y-110412890D01*
X142945112Y-110519351D01*
X143035649Y-110609888D01*
X143142110Y-110681022D01*
X143202511Y-110706041D01*
X142364848Y-111543703D01*
X142547476Y-111668216D01*
X142547485Y-111668221D01*
X142790539Y-111785269D01*
X142790537Y-111785269D01*
X143048337Y-111864790D01*
X143048343Y-111864792D01*
X143315101Y-111904999D01*
X143315110Y-111905000D01*
X143584890Y-111905000D01*
X143584898Y-111904999D01*
X143851656Y-111864792D01*
X143851662Y-111864790D01*
X144109461Y-111785269D01*
X144352516Y-111668221D01*
X144352517Y-111668220D01*
X144535150Y-111543703D01*
X143697487Y-110706041D01*
X143757890Y-110681022D01*
X143864351Y-110609888D01*
X143954888Y-110519351D01*
X144026022Y-110412890D01*
X144051041Y-110352487D01*
X144887703Y-111189150D01*
X144887704Y-111189149D01*
X144941400Y-111121818D01*
X145076290Y-110888181D01*
X145174851Y-110637052D01*
X145174857Y-110637033D01*
X145234886Y-110374028D01*
X145234886Y-110374026D01*
X145255047Y-110105004D01*
X145255047Y-110104995D01*
X146644451Y-110104995D01*
X146644451Y-110105004D01*
X146664616Y-110374101D01*
X146724664Y-110637188D01*
X146724666Y-110637195D01*
X146770901Y-110755000D01*
X146823257Y-110888398D01*
X146958185Y-111122102D01*
X147051367Y-111238948D01*
X147126442Y-111333089D01*
X147293264Y-111487876D01*
X147324259Y-111516635D01*
X147547226Y-111668651D01*
X147790359Y-111785738D01*
X148048228Y-111865280D01*
X148048229Y-111865280D01*
X148048232Y-111865281D01*
X148315063Y-111905499D01*
X148315068Y-111905499D01*
X148315071Y-111905500D01*
X148315072Y-111905500D01*
X148584928Y-111905500D01*
X148584929Y-111905500D01*
X148584936Y-111905499D01*
X148851767Y-111865281D01*
X148851768Y-111865280D01*
X148851772Y-111865280D01*
X149109641Y-111785738D01*
X149352775Y-111668651D01*
X149575741Y-111516635D01*
X149729259Y-111374190D01*
X149773557Y-111333089D01*
X149773557Y-111333087D01*
X149773561Y-111333085D01*
X149941815Y-111122102D01*
X150076743Y-110888398D01*
X150175334Y-110637195D01*
X150235383Y-110374103D01*
X150255549Y-110105000D01*
X150235383Y-109835897D01*
X150175334Y-109572805D01*
X150076743Y-109321602D01*
X149941815Y-109087898D01*
X149773561Y-108876915D01*
X149773560Y-108876914D01*
X149773557Y-108876910D01*
X149575741Y-108693365D01*
X149352775Y-108541349D01*
X149352769Y-108541346D01*
X149352768Y-108541345D01*
X149352767Y-108541344D01*
X149109643Y-108424263D01*
X149109645Y-108424263D01*
X148851773Y-108344720D01*
X148851767Y-108344718D01*
X148584936Y-108304500D01*
X148584929Y-108304500D01*
X148315071Y-108304500D01*
X148315063Y-108304500D01*
X148048232Y-108344718D01*
X148048226Y-108344720D01*
X147790358Y-108424262D01*
X147547230Y-108541346D01*
X147324258Y-108693365D01*
X147126442Y-108876910D01*
X146958185Y-109087898D01*
X146823258Y-109321599D01*
X146823256Y-109321603D01*
X146724666Y-109572804D01*
X146724664Y-109572811D01*
X146664616Y-109835898D01*
X146644451Y-110104995D01*
X145255047Y-110104995D01*
X145234886Y-109835973D01*
X145234886Y-109835971D01*
X145174857Y-109572966D01*
X145174851Y-109572947D01*
X145076290Y-109321818D01*
X145076291Y-109321818D01*
X144941400Y-109088182D01*
X144941393Y-109088171D01*
X144887704Y-109020849D01*
X144887703Y-109020848D01*
X144051041Y-109857511D01*
X144026022Y-109797110D01*
X143954888Y-109690649D01*
X143864351Y-109600112D01*
X143757890Y-109528978D01*
X143697488Y-109503958D01*
X144535150Y-108666295D01*
X144352524Y-108541783D01*
X144352516Y-108541778D01*
X144109460Y-108424730D01*
X144109462Y-108424730D01*
X143851662Y-108345209D01*
X143851656Y-108345207D01*
X143584898Y-108305000D01*
X143315101Y-108305000D01*
X143048343Y-108345207D01*
X143048337Y-108345209D01*
X142790538Y-108424730D01*
X142547482Y-108541780D01*
X142547469Y-108541787D01*
X142364848Y-108666294D01*
X143202512Y-109503958D01*
X143142110Y-109528978D01*
X143035649Y-109600112D01*
X142945112Y-109690649D01*
X142873978Y-109797110D01*
X142848958Y-109857512D01*
X142012294Y-109020848D01*
X141958602Y-109088177D01*
X141823709Y-109321818D01*
X141725148Y-109572947D01*
X141725142Y-109572966D01*
X141665113Y-109835971D01*
X141665113Y-109835973D01*
X141644953Y-110104995D01*
X140250499Y-110104995D01*
X140250499Y-108757128D01*
X140244091Y-108697517D01*
X140242542Y-108693365D01*
X140193797Y-108562671D01*
X140193793Y-108562664D01*
X140107547Y-108447455D01*
X140107544Y-108447452D01*
X139992335Y-108361206D01*
X139992328Y-108361202D01*
X139857482Y-108310908D01*
X139857483Y-108310908D01*
X139797883Y-108304501D01*
X139797881Y-108304500D01*
X139797873Y-108304500D01*
X139797864Y-108304500D01*
X137102129Y-108304500D01*
X137102123Y-108304501D01*
X137042516Y-108310908D01*
X136907671Y-108361202D01*
X136907664Y-108361206D01*
X136792455Y-108447452D01*
X136792452Y-108447455D01*
X136706206Y-108562664D01*
X136706202Y-108562671D01*
X136655908Y-108697517D01*
X136649501Y-108757116D01*
X136649501Y-108757123D01*
X136649500Y-108757135D01*
X101058000Y-108757135D01*
X101058000Y-105049994D01*
X156144357Y-105049994D01*
X156144357Y-105050005D01*
X156164890Y-105297812D01*
X156164892Y-105297824D01*
X156225936Y-105538881D01*
X156325826Y-105766606D01*
X156461833Y-105974782D01*
X156461836Y-105974785D01*
X156630256Y-106157738D01*
X156826491Y-106310474D01*
X156826493Y-106310475D01*
X156987973Y-106397864D01*
X157045190Y-106428828D01*
X157280386Y-106509571D01*
X157525665Y-106550500D01*
X157774336Y-106550500D01*
X157780595Y-106549455D01*
X157799358Y-106546324D01*
X157868722Y-106554704D01*
X157907451Y-106580951D01*
X159125024Y-107798523D01*
X160300536Y-108974035D01*
X160414399Y-109087898D01*
X160425966Y-109099465D01*
X160573446Y-109198009D01*
X160573459Y-109198016D01*
X160696363Y-109248923D01*
X160737334Y-109265894D01*
X160737336Y-109265894D01*
X160737341Y-109265896D01*
X160911304Y-109300499D01*
X160911307Y-109300500D01*
X160911309Y-109300500D01*
X171703693Y-109300500D01*
X171703694Y-109300499D01*
X171877666Y-109265895D01*
X171970486Y-109227447D01*
X172041547Y-109198013D01*
X172129959Y-109138936D01*
X172189036Y-109099464D01*
X172853726Y-108434771D01*
X172915047Y-108401288D01*
X172960802Y-108399981D01*
X172995646Y-108405500D01*
X172995647Y-108405500D01*
X173224353Y-108405500D01*
X173224354Y-108405500D01*
X173450245Y-108369722D01*
X173450248Y-108369721D01*
X173450249Y-108369721D01*
X173667755Y-108299049D01*
X173667755Y-108299048D01*
X173667758Y-108299048D01*
X173871538Y-108195217D01*
X174056566Y-108060786D01*
X174218286Y-107899066D01*
X174279683Y-107814559D01*
X174335012Y-107771896D01*
X174404625Y-107765917D01*
X174466420Y-107798523D01*
X174480314Y-107814556D01*
X174541714Y-107899066D01*
X174703434Y-108060786D01*
X174888462Y-108195217D01*
X175020599Y-108262544D01*
X175092244Y-108299049D01*
X175309751Y-108369721D01*
X175309752Y-108369721D01*
X175309755Y-108369722D01*
X175535646Y-108405500D01*
X175535647Y-108405500D01*
X175764353Y-108405500D01*
X175764354Y-108405500D01*
X175990245Y-108369722D01*
X175990248Y-108369721D01*
X175990249Y-108369721D01*
X176207755Y-108299049D01*
X176207755Y-108299048D01*
X176207758Y-108299048D01*
X176411538Y-108195217D01*
X176594245Y-108062472D01*
X176660046Y-108038994D01*
X176728100Y-108054819D01*
X176776795Y-108104924D01*
X176783308Y-108119459D01*
X176793702Y-108147328D01*
X176793706Y-108147335D01*
X176879952Y-108262544D01*
X176879955Y-108262547D01*
X176995164Y-108348793D01*
X176995171Y-108348797D01*
X177130017Y-108399091D01*
X177130016Y-108399091D01*
X177136944Y-108399835D01*
X177189627Y-108405500D01*
X179190372Y-108405499D01*
X179249983Y-108399091D01*
X179384831Y-108348796D01*
X179500046Y-108262546D01*
X179586296Y-108147331D01*
X179636591Y-108012483D01*
X179643000Y-107952873D01*
X179642999Y-105857128D01*
X179636591Y-105797517D01*
X179626660Y-105770891D01*
X179586297Y-105662671D01*
X179586293Y-105662664D01*
X179500047Y-105547455D01*
X179500044Y-105547452D01*
X179384835Y-105461206D01*
X179384828Y-105461202D01*
X179249982Y-105410908D01*
X179249983Y-105410908D01*
X179190383Y-105404501D01*
X179190381Y-105404500D01*
X179190373Y-105404500D01*
X179190364Y-105404500D01*
X177189629Y-105404500D01*
X177189623Y-105404501D01*
X177130016Y-105410908D01*
X176995171Y-105461202D01*
X176995164Y-105461206D01*
X176879955Y-105547452D01*
X176879952Y-105547455D01*
X176793706Y-105662664D01*
X176793703Y-105662670D01*
X176783308Y-105690541D01*
X176741436Y-105746474D01*
X176675972Y-105770891D01*
X176607699Y-105756039D01*
X176594250Y-105747531D01*
X176411538Y-105614783D01*
X176207755Y-105510950D01*
X175990248Y-105440278D01*
X175804812Y-105410908D01*
X175764354Y-105404500D01*
X175535646Y-105404500D01*
X175495188Y-105410908D01*
X175309753Y-105440278D01*
X175309750Y-105440278D01*
X175092244Y-105510950D01*
X174888461Y-105614783D01*
X174822551Y-105662670D01*
X174703434Y-105749214D01*
X174703432Y-105749216D01*
X174703431Y-105749216D01*
X174541715Y-105910932D01*
X174480318Y-105995438D01*
X174424987Y-106038103D01*
X174355374Y-106044082D01*
X174293579Y-106011476D01*
X174279682Y-105995438D01*
X174264674Y-105974782D01*
X174218286Y-105910934D01*
X174056566Y-105749214D01*
X173871538Y-105614783D01*
X173667755Y-105510950D01*
X173450248Y-105440278D01*
X173264812Y-105410908D01*
X173224354Y-105404500D01*
X172995646Y-105404500D01*
X172955188Y-105410908D01*
X172769753Y-105440278D01*
X172769750Y-105440278D01*
X172552244Y-105510950D01*
X172348461Y-105614783D01*
X172282551Y-105662670D01*
X172163434Y-105749214D01*
X172163432Y-105749216D01*
X172163431Y-105749216D01*
X172001716Y-105910931D01*
X172001716Y-105910932D01*
X172001714Y-105910934D01*
X171943980Y-105990396D01*
X171867283Y-106095961D01*
X171763450Y-106299744D01*
X171692778Y-106517250D01*
X171692778Y-106517253D01*
X171657000Y-106743146D01*
X171657000Y-107033137D01*
X171637315Y-107100176D01*
X171620681Y-107120818D01*
X171278319Y-107463181D01*
X171216996Y-107496666D01*
X171190638Y-107499500D01*
X161424361Y-107499500D01*
X161357322Y-107479815D01*
X161336680Y-107463181D01*
X159178520Y-105305020D01*
X159145035Y-105243697D01*
X159142625Y-105207098D01*
X159155643Y-105050004D01*
X159155643Y-105049994D01*
X163644357Y-105049994D01*
X163644357Y-105050005D01*
X163664890Y-105297812D01*
X163664892Y-105297824D01*
X163725936Y-105538881D01*
X163825826Y-105766606D01*
X163961833Y-105974782D01*
X163961836Y-105974785D01*
X164130256Y-106157738D01*
X164326491Y-106310474D01*
X164326493Y-106310475D01*
X164487973Y-106397864D01*
X164545190Y-106428828D01*
X164780386Y-106509571D01*
X165025665Y-106550500D01*
X165274335Y-106550500D01*
X165519614Y-106509571D01*
X165754810Y-106428828D01*
X165973509Y-106310474D01*
X166169744Y-106157738D01*
X166338164Y-105974785D01*
X166474173Y-105766607D01*
X166574063Y-105538881D01*
X166635108Y-105297821D01*
X166655643Y-105050000D01*
X166635108Y-104802179D01*
X166574063Y-104561119D01*
X166474173Y-104333393D01*
X166338166Y-104125217D01*
X166316557Y-104101744D01*
X166169744Y-103942262D01*
X165973509Y-103789526D01*
X165973507Y-103789525D01*
X165973506Y-103789524D01*
X165812026Y-103702135D01*
X187799500Y-103702135D01*
X187799500Y-106397870D01*
X187799501Y-106397876D01*
X187805908Y-106457483D01*
X187856202Y-106592328D01*
X187856206Y-106592335D01*
X187942452Y-106707544D01*
X187942455Y-106707547D01*
X188057664Y-106793793D01*
X188057671Y-106793797D01*
X188192517Y-106844091D01*
X188192516Y-106844091D01*
X188199444Y-106844835D01*
X188252127Y-106850500D01*
X190947872Y-106850499D01*
X191007483Y-106844091D01*
X191142331Y-106793796D01*
X191257546Y-106707546D01*
X191343796Y-106592331D01*
X191394091Y-106457483D01*
X191400500Y-106397873D01*
X191400499Y-103702128D01*
X191394091Y-103642517D01*
X191374663Y-103590429D01*
X191343797Y-103507671D01*
X191343793Y-103507664D01*
X191257547Y-103392455D01*
X191257544Y-103392452D01*
X191142335Y-103306206D01*
X191142328Y-103306202D01*
X191007482Y-103255908D01*
X191007483Y-103255908D01*
X190947883Y-103249501D01*
X190947881Y-103249500D01*
X190947873Y-103249500D01*
X190947864Y-103249500D01*
X188252129Y-103249500D01*
X188252123Y-103249501D01*
X188192516Y-103255908D01*
X188057671Y-103306202D01*
X188057664Y-103306206D01*
X187942455Y-103392452D01*
X187942452Y-103392455D01*
X187856206Y-103507664D01*
X187856202Y-103507671D01*
X187805908Y-103642517D01*
X187805099Y-103650047D01*
X187799501Y-103702123D01*
X187799500Y-103702135D01*
X165812026Y-103702135D01*
X165754811Y-103671172D01*
X165754802Y-103671169D01*
X165519616Y-103590429D01*
X165274335Y-103549500D01*
X165025665Y-103549500D01*
X164780383Y-103590429D01*
X164545197Y-103671169D01*
X164545188Y-103671172D01*
X164326493Y-103789524D01*
X164130257Y-103942261D01*
X163961833Y-104125217D01*
X163825826Y-104333393D01*
X163725936Y-104561118D01*
X163664892Y-104802175D01*
X163664890Y-104802187D01*
X163644357Y-105049994D01*
X159155643Y-105049994D01*
X159135109Y-104802187D01*
X159135107Y-104802175D01*
X159074063Y-104561118D01*
X158974173Y-104333393D01*
X158838166Y-104125217D01*
X158816557Y-104101744D01*
X158669744Y-103942262D01*
X158473509Y-103789526D01*
X158473507Y-103789525D01*
X158473506Y-103789524D01*
X158254811Y-103671172D01*
X158254802Y-103671169D01*
X158019616Y-103590429D01*
X157774335Y-103549500D01*
X157525665Y-103549500D01*
X157280383Y-103590429D01*
X157045197Y-103671169D01*
X157045188Y-103671172D01*
X156826493Y-103789524D01*
X156630257Y-103942261D01*
X156461833Y-104125217D01*
X156325826Y-104333393D01*
X156225936Y-104561118D01*
X156164892Y-104802175D01*
X156164890Y-104802187D01*
X156144357Y-105049994D01*
X101058000Y-105049994D01*
X101058000Y-102649997D01*
X106445034Y-102649997D01*
X106445034Y-102650002D01*
X106464858Y-102876599D01*
X106464860Y-102876610D01*
X106523730Y-103096317D01*
X106523735Y-103096331D01*
X106619863Y-103302478D01*
X106670974Y-103375472D01*
X107350000Y-102696446D01*
X107350000Y-102702661D01*
X107377259Y-102804394D01*
X107429920Y-102895606D01*
X107504394Y-102970080D01*
X107595606Y-103022741D01*
X107697339Y-103050000D01*
X107703553Y-103050000D01*
X107024526Y-103729025D01*
X107097513Y-103780132D01*
X107097521Y-103780136D01*
X107303668Y-103876264D01*
X107303682Y-103876269D01*
X107523389Y-103935139D01*
X107523400Y-103935141D01*
X107749998Y-103954966D01*
X107750002Y-103954966D01*
X107976599Y-103935141D01*
X107976610Y-103935139D01*
X108196317Y-103876269D01*
X108196331Y-103876264D01*
X108402478Y-103780136D01*
X108475471Y-103729024D01*
X107796447Y-103050000D01*
X107802661Y-103050000D01*
X107904394Y-103022741D01*
X107995606Y-102970080D01*
X108070080Y-102895606D01*
X108122741Y-102804394D01*
X108150000Y-102702661D01*
X108150000Y-102696447D01*
X108829024Y-103375471D01*
X108880134Y-103302481D01*
X108887340Y-103287028D01*
X108933511Y-103234587D01*
X109000704Y-103215433D01*
X109067585Y-103235646D01*
X109112105Y-103287022D01*
X109119430Y-103302730D01*
X109119432Y-103302734D01*
X109249954Y-103489141D01*
X109410858Y-103650045D01*
X109410861Y-103650047D01*
X109597266Y-103780568D01*
X109803504Y-103876739D01*
X110023308Y-103935635D01*
X110185230Y-103949801D01*
X110249998Y-103955468D01*
X110250000Y-103955468D01*
X110250002Y-103955468D01*
X110306673Y-103950509D01*
X110476692Y-103935635D01*
X110696496Y-103876739D01*
X110902734Y-103780568D01*
X111089139Y-103650047D01*
X111250047Y-103489139D01*
X111380568Y-103302734D01*
X111476739Y-103096496D01*
X111535635Y-102876692D01*
X111555468Y-102650000D01*
X111535635Y-102423308D01*
X111476739Y-102203504D01*
X111380568Y-101997266D01*
X111250047Y-101810861D01*
X111250045Y-101810858D01*
X111089141Y-101649954D01*
X110902734Y-101519432D01*
X110902732Y-101519431D01*
X110696497Y-101423261D01*
X110696488Y-101423258D01*
X110476697Y-101364366D01*
X110476693Y-101364365D01*
X110476692Y-101364365D01*
X110476691Y-101364364D01*
X110476686Y-101364364D01*
X110250002Y-101344532D01*
X110249998Y-101344532D01*
X110023313Y-101364364D01*
X110023302Y-101364366D01*
X109803511Y-101423258D01*
X109803502Y-101423261D01*
X109597267Y-101519431D01*
X109597265Y-101519432D01*
X109410858Y-101649954D01*
X109249954Y-101810858D01*
X109119432Y-101997265D01*
X109119429Y-101997270D01*
X109112104Y-102012979D01*
X109065929Y-102065417D01*
X108998735Y-102084566D01*
X108931855Y-102064347D01*
X108887341Y-102012973D01*
X108880133Y-101997515D01*
X108880132Y-101997513D01*
X108829025Y-101924526D01*
X108150000Y-102603551D01*
X108150000Y-102597339D01*
X108122741Y-102495606D01*
X108070080Y-102404394D01*
X107995606Y-102329920D01*
X107904394Y-102277259D01*
X107802661Y-102250000D01*
X107796445Y-102250000D01*
X108475472Y-101570974D01*
X108402478Y-101519863D01*
X108196331Y-101423735D01*
X108196317Y-101423730D01*
X107976610Y-101364860D01*
X107976599Y-101364858D01*
X107750002Y-101345034D01*
X107749998Y-101345034D01*
X107523400Y-101364858D01*
X107523389Y-101364860D01*
X107303682Y-101423730D01*
X107303673Y-101423734D01*
X107097516Y-101519866D01*
X107097512Y-101519868D01*
X107024526Y-101570973D01*
X107024526Y-101570974D01*
X107703553Y-102250000D01*
X107697339Y-102250000D01*
X107595606Y-102277259D01*
X107504394Y-102329920D01*
X107429920Y-102404394D01*
X107377259Y-102495606D01*
X107350000Y-102597339D01*
X107350000Y-102603552D01*
X106670974Y-101924526D01*
X106670973Y-101924526D01*
X106619868Y-101997512D01*
X106619866Y-101997516D01*
X106523734Y-102203673D01*
X106523730Y-102203682D01*
X106464860Y-102423389D01*
X106464858Y-102423400D01*
X106445034Y-102649997D01*
X101058000Y-102649997D01*
X101058000Y-100149996D01*
X124844435Y-100149996D01*
X124844435Y-100150003D01*
X124864630Y-100329249D01*
X124864631Y-100329254D01*
X124924211Y-100499523D01*
X124967528Y-100568461D01*
X125020184Y-100652262D01*
X125147738Y-100779816D01*
X125300478Y-100875789D01*
X125470745Y-100935368D01*
X125470750Y-100935369D01*
X125649996Y-100955565D01*
X125650000Y-100955565D01*
X125650004Y-100955565D01*
X125829249Y-100935369D01*
X125829252Y-100935368D01*
X125829255Y-100935368D01*
X125999522Y-100875789D01*
X126152262Y-100779816D01*
X126279816Y-100652262D01*
X126375789Y-100499522D01*
X126435368Y-100329255D01*
X126435369Y-100329249D01*
X126455565Y-100150003D01*
X126455565Y-100149996D01*
X126435369Y-99970750D01*
X126435368Y-99970745D01*
X126428108Y-99949996D01*
X134744435Y-99949996D01*
X134744435Y-99950003D01*
X134764630Y-100129249D01*
X134764631Y-100129254D01*
X134824211Y-100299523D01*
X134876935Y-100383432D01*
X134920184Y-100452262D01*
X135047738Y-100579816D01*
X135051297Y-100582052D01*
X135199255Y-100675021D01*
X135200478Y-100675789D01*
X135370745Y-100735368D01*
X135370750Y-100735369D01*
X135549996Y-100755565D01*
X135550000Y-100755565D01*
X135550004Y-100755565D01*
X135729249Y-100735369D01*
X135729252Y-100735368D01*
X135729255Y-100735368D01*
X135899522Y-100675789D01*
X136052262Y-100579816D01*
X136179816Y-100452262D01*
X136275789Y-100299522D01*
X136335368Y-100129255D01*
X136337085Y-100114019D01*
X136355565Y-99950003D01*
X136355565Y-99949996D01*
X136335369Y-99770750D01*
X136335368Y-99770745D01*
X136292326Y-99647738D01*
X136275789Y-99600478D01*
X136179816Y-99447738D01*
X136179815Y-99447737D01*
X136176111Y-99441842D01*
X136177714Y-99440834D01*
X136154874Y-99384900D01*
X136167624Y-99316203D01*
X136215490Y-99265305D01*
X136283275Y-99248366D01*
X136292111Y-99249043D01*
X136349996Y-99255565D01*
X136350000Y-99255565D01*
X136350004Y-99255565D01*
X136529249Y-99235369D01*
X136529252Y-99235368D01*
X136529255Y-99235368D01*
X136699522Y-99175789D01*
X136852262Y-99079816D01*
X136979816Y-98952262D01*
X137075789Y-98799522D01*
X137135368Y-98629255D01*
X137137392Y-98611294D01*
X137155565Y-98450003D01*
X137155565Y-98449996D01*
X137135369Y-98270750D01*
X137135368Y-98270745D01*
X137121895Y-98232242D01*
X137075789Y-98100478D01*
X136979816Y-97947738D01*
X136852262Y-97820184D01*
X136775417Y-97771899D01*
X136699523Y-97724211D01*
X136529254Y-97664631D01*
X136529249Y-97664630D01*
X136350004Y-97644435D01*
X136349996Y-97644435D01*
X136170750Y-97664630D01*
X136170745Y-97664631D01*
X136000476Y-97724211D01*
X135847737Y-97820184D01*
X135720184Y-97947737D01*
X135624211Y-98100476D01*
X135564631Y-98270745D01*
X135564630Y-98270750D01*
X135544435Y-98449996D01*
X135544435Y-98450003D01*
X135564630Y-98629249D01*
X135564631Y-98629254D01*
X135624211Y-98799523D01*
X135723889Y-98958158D01*
X135722285Y-98959165D01*
X135745126Y-99015103D01*
X135732373Y-99083799D01*
X135684505Y-99134696D01*
X135616720Y-99151633D01*
X135607889Y-99150957D01*
X135574421Y-99147186D01*
X135550000Y-99144435D01*
X135549998Y-99144435D01*
X135549997Y-99144435D01*
X135549996Y-99144435D01*
X135370750Y-99164630D01*
X135370745Y-99164631D01*
X135200476Y-99224211D01*
X135047737Y-99320184D01*
X134920184Y-99447737D01*
X134824211Y-99600476D01*
X134764631Y-99770745D01*
X134764630Y-99770750D01*
X134744435Y-99949996D01*
X126428108Y-99949996D01*
X126375788Y-99800476D01*
X126279815Y-99647737D01*
X126152262Y-99520184D01*
X125999523Y-99424211D01*
X125829254Y-99364631D01*
X125829249Y-99364630D01*
X125650004Y-99344435D01*
X125649996Y-99344435D01*
X125470750Y-99364630D01*
X125470745Y-99364631D01*
X125300476Y-99424211D01*
X125147737Y-99520184D01*
X125020184Y-99647737D01*
X124924211Y-99800476D01*
X124864631Y-99970745D01*
X124864630Y-99970750D01*
X124844435Y-100149996D01*
X101058000Y-100149996D01*
X101058000Y-97399996D01*
X128544435Y-97399996D01*
X128544435Y-97400003D01*
X128564630Y-97579249D01*
X128564631Y-97579254D01*
X128624211Y-97749523D01*
X128690019Y-97854255D01*
X128720184Y-97902262D01*
X128847738Y-98029816D01*
X128938080Y-98086582D01*
X128960192Y-98100476D01*
X129000478Y-98125789D01*
X129147579Y-98177262D01*
X129170745Y-98185368D01*
X129170750Y-98185369D01*
X129349996Y-98205565D01*
X129350000Y-98205565D01*
X129350004Y-98205565D01*
X129529249Y-98185369D01*
X129529252Y-98185368D01*
X129529255Y-98185368D01*
X129699522Y-98125789D01*
X129852262Y-98029816D01*
X129979816Y-97902262D01*
X129988380Y-97888631D01*
X130040712Y-97842343D01*
X130109766Y-97831693D01*
X130173614Y-97860068D01*
X130210414Y-97913650D01*
X130249209Y-98024519D01*
X130249211Y-98024522D01*
X130345184Y-98177262D01*
X130472738Y-98304816D01*
X130625478Y-98400789D01*
X130765409Y-98449753D01*
X130795745Y-98460368D01*
X130795750Y-98460369D01*
X130974996Y-98480565D01*
X130975000Y-98480565D01*
X130975004Y-98480565D01*
X131154249Y-98460369D01*
X131154252Y-98460368D01*
X131154255Y-98460368D01*
X131324522Y-98400789D01*
X131477262Y-98304816D01*
X131604816Y-98177262D01*
X131700789Y-98024522D01*
X131760368Y-97854255D01*
X131760369Y-97854249D01*
X131780565Y-97675003D01*
X131780565Y-97674996D01*
X131760369Y-97495750D01*
X131760368Y-97495745D01*
X131716362Y-97369983D01*
X131700789Y-97325478D01*
X131604816Y-97172738D01*
X131477262Y-97045184D01*
X131324523Y-96949211D01*
X131154254Y-96889631D01*
X131154249Y-96889630D01*
X130975004Y-96869435D01*
X130974996Y-96869435D01*
X130795750Y-96889630D01*
X130795745Y-96889631D01*
X130625476Y-96949211D01*
X130472737Y-97045184D01*
X130345183Y-97172738D01*
X130336617Y-97186371D01*
X130284280Y-97232660D01*
X130215226Y-97243305D01*
X130151379Y-97214927D01*
X130114584Y-97161348D01*
X130075789Y-97050478D01*
X130016151Y-96955565D01*
X129979816Y-96897738D01*
X129852262Y-96770184D01*
X129797631Y-96735857D01*
X129699523Y-96674211D01*
X129529254Y-96614631D01*
X129529249Y-96614630D01*
X129350004Y-96594435D01*
X129349996Y-96594435D01*
X129170750Y-96614630D01*
X129170745Y-96614631D01*
X129000476Y-96674211D01*
X128847737Y-96770184D01*
X128720184Y-96897737D01*
X128624211Y-97050476D01*
X128564631Y-97220745D01*
X128564630Y-97220750D01*
X128544435Y-97399996D01*
X101058000Y-97399996D01*
X101058000Y-93363389D01*
X102949500Y-93363389D01*
X102949500Y-93536610D01*
X102972279Y-93680436D01*
X102976598Y-93707701D01*
X103011261Y-93814383D01*
X103030128Y-93872447D01*
X103068896Y-93948535D01*
X103108768Y-94026788D01*
X103210586Y-94166928D01*
X103333072Y-94289414D01*
X103473212Y-94391232D01*
X103627555Y-94469873D01*
X103792299Y-94523402D01*
X103963389Y-94550500D01*
X103963390Y-94550500D01*
X104136610Y-94550500D01*
X104136611Y-94550500D01*
X104307701Y-94523402D01*
X104472445Y-94469873D01*
X104626788Y-94391232D01*
X104766928Y-94289414D01*
X104889414Y-94166928D01*
X104991232Y-94026788D01*
X105069873Y-93872445D01*
X105123402Y-93707701D01*
X105150500Y-93536611D01*
X105150500Y-93363389D01*
X109949500Y-93363389D01*
X109949500Y-93536610D01*
X109972279Y-93680436D01*
X109976598Y-93707701D01*
X110011261Y-93814383D01*
X110030128Y-93872447D01*
X110068896Y-93948535D01*
X110108768Y-94026788D01*
X110210586Y-94166928D01*
X110333072Y-94289414D01*
X110473212Y-94391232D01*
X110627555Y-94469873D01*
X110792299Y-94523402D01*
X110963389Y-94550500D01*
X110963390Y-94550500D01*
X111136610Y-94550500D01*
X111136611Y-94550500D01*
X111139793Y-94549996D01*
X133906935Y-94549996D01*
X133906935Y-94550003D01*
X133927130Y-94729249D01*
X133927131Y-94729254D01*
X133986711Y-94899523D01*
X134047137Y-94995689D01*
X134082684Y-95052262D01*
X134210238Y-95179816D01*
X134362978Y-95275789D01*
X134533245Y-95335368D01*
X134533250Y-95335369D01*
X134712496Y-95355565D01*
X134712500Y-95355565D01*
X134712504Y-95355565D01*
X134891749Y-95335369D01*
X134891752Y-95335368D01*
X134891755Y-95335368D01*
X135062022Y-95275789D01*
X135214762Y-95179816D01*
X135342316Y-95052262D01*
X135438289Y-94899522D01*
X135497868Y-94729255D01*
X135518065Y-94550000D01*
X135515068Y-94523402D01*
X135497869Y-94370750D01*
X135497868Y-94370745D01*
X135438288Y-94200476D01*
X135399082Y-94138080D01*
X135342316Y-94047738D01*
X135214762Y-93920184D01*
X135211848Y-93918353D01*
X135062023Y-93824211D01*
X134891754Y-93764631D01*
X134891749Y-93764630D01*
X134712504Y-93744435D01*
X134712496Y-93744435D01*
X134533250Y-93764630D01*
X134533245Y-93764631D01*
X134362976Y-93824211D01*
X134210237Y-93920184D01*
X134082684Y-94047737D01*
X133986711Y-94200476D01*
X133927131Y-94370745D01*
X133927130Y-94370750D01*
X133906935Y-94549996D01*
X111139793Y-94549996D01*
X111307701Y-94523402D01*
X111472445Y-94469873D01*
X111626788Y-94391232D01*
X111766928Y-94289414D01*
X111889414Y-94166928D01*
X111991232Y-94026788D01*
X112069873Y-93872445D01*
X112123402Y-93707701D01*
X112150500Y-93536611D01*
X112150500Y-93363389D01*
X112123402Y-93192299D01*
X112069873Y-93027555D01*
X111991232Y-92873212D01*
X111889414Y-92733072D01*
X111766928Y-92610586D01*
X111626788Y-92508768D01*
X111472445Y-92430127D01*
X111307701Y-92376598D01*
X111307699Y-92376597D01*
X111307698Y-92376597D01*
X111176271Y-92355781D01*
X111136611Y-92349500D01*
X110963389Y-92349500D01*
X110923728Y-92355781D01*
X110792302Y-92376597D01*
X110627552Y-92430128D01*
X110473211Y-92508768D01*
X110399028Y-92562666D01*
X110333072Y-92610586D01*
X110333070Y-92610588D01*
X110333069Y-92610588D01*
X110210588Y-92733069D01*
X110210588Y-92733070D01*
X110210586Y-92733072D01*
X110177610Y-92778459D01*
X110108768Y-92873211D01*
X110030128Y-93027552D01*
X109976597Y-93192302D01*
X109949500Y-93363389D01*
X105150500Y-93363389D01*
X105123402Y-93192299D01*
X105069873Y-93027555D01*
X104991232Y-92873212D01*
X104889414Y-92733072D01*
X104766928Y-92610586D01*
X104626788Y-92508768D01*
X104472445Y-92430127D01*
X104307701Y-92376598D01*
X104307699Y-92376597D01*
X104307698Y-92376597D01*
X104176271Y-92355781D01*
X104136611Y-92349500D01*
X103963389Y-92349500D01*
X103923728Y-92355781D01*
X103792302Y-92376597D01*
X103627552Y-92430128D01*
X103473211Y-92508768D01*
X103399028Y-92562666D01*
X103333072Y-92610586D01*
X103333070Y-92610588D01*
X103333069Y-92610588D01*
X103210588Y-92733069D01*
X103210588Y-92733070D01*
X103210586Y-92733072D01*
X103177610Y-92778459D01*
X103108768Y-92873211D01*
X103030128Y-93027552D01*
X102976597Y-93192302D01*
X102949500Y-93363389D01*
X101058000Y-93363389D01*
X101058000Y-91199996D01*
X128194435Y-91199996D01*
X128194435Y-91200003D01*
X128214630Y-91379249D01*
X128214631Y-91379254D01*
X128274211Y-91549523D01*
X128343057Y-91659090D01*
X128370184Y-91702262D01*
X128497738Y-91829816D01*
X128650478Y-91925789D01*
X128820745Y-91985368D01*
X128820750Y-91985369D01*
X128999996Y-92005565D01*
X129000000Y-92005565D01*
X129000004Y-92005565D01*
X129179249Y-91985369D01*
X129179252Y-91985368D01*
X129179255Y-91985368D01*
X129349522Y-91925789D01*
X129502262Y-91829816D01*
X129629816Y-91702262D01*
X129725789Y-91549522D01*
X129785368Y-91379255D01*
X129785692Y-91376378D01*
X129805565Y-91200003D01*
X129805565Y-91199996D01*
X129785369Y-91020750D01*
X129785368Y-91020745D01*
X129725788Y-90850476D01*
X129629815Y-90697737D01*
X129502262Y-90570184D01*
X129349523Y-90474211D01*
X129179254Y-90414631D01*
X129179249Y-90414630D01*
X129000004Y-90394435D01*
X128999996Y-90394435D01*
X128820750Y-90414630D01*
X128820745Y-90414631D01*
X128650476Y-90474211D01*
X128497737Y-90570184D01*
X128370184Y-90697737D01*
X128274211Y-90850476D01*
X128214631Y-91020745D01*
X128214630Y-91020750D01*
X128194435Y-91199996D01*
X101058000Y-91199996D01*
X101058000Y-88099996D01*
X128294435Y-88099996D01*
X128294435Y-88100003D01*
X128314630Y-88279249D01*
X128314631Y-88279254D01*
X128374211Y-88449523D01*
X128452082Y-88573453D01*
X128470184Y-88602262D01*
X128597738Y-88729816D01*
X128750478Y-88825789D01*
X128920745Y-88885368D01*
X128920750Y-88885369D01*
X129099996Y-88905565D01*
X129100000Y-88905565D01*
X129100004Y-88905565D01*
X129279249Y-88885369D01*
X129279252Y-88885368D01*
X129279255Y-88885368D01*
X129449522Y-88825789D01*
X129602262Y-88729816D01*
X129729816Y-88602262D01*
X129825789Y-88449522D01*
X129885368Y-88279255D01*
X129886799Y-88266558D01*
X129905565Y-88100003D01*
X129905565Y-88099996D01*
X129885369Y-87920750D01*
X129885368Y-87920745D01*
X129825789Y-87750478D01*
X129744505Y-87621116D01*
X129725500Y-87555145D01*
X129725500Y-85660452D01*
X129745185Y-85593413D01*
X129761819Y-85572771D01*
X131422772Y-83911819D01*
X131484095Y-83878334D01*
X131510453Y-83875500D01*
X134756982Y-83875500D01*
X134824021Y-83895185D01*
X134869776Y-83947989D01*
X134879720Y-84017147D01*
X134871544Y-84046949D01*
X134838494Y-84126738D01*
X134834104Y-84137337D01*
X134834103Y-84137341D01*
X134799500Y-84311303D01*
X134799500Y-84488696D01*
X134834103Y-84662658D01*
X134834105Y-84662666D01*
X134901988Y-84826548D01*
X135000534Y-84974034D01*
X135000540Y-84974041D01*
X135400536Y-85374035D01*
X135525965Y-85499464D01*
X135525966Y-85499465D01*
X135673446Y-85598009D01*
X135673459Y-85598016D01*
X135795891Y-85648728D01*
X135837334Y-85665894D01*
X135837336Y-85665894D01*
X135837341Y-85665896D01*
X136011304Y-85700499D01*
X136011307Y-85700500D01*
X136011309Y-85700500D01*
X140502845Y-85700500D01*
X140569884Y-85720185D01*
X140590526Y-85736819D01*
X141753173Y-86899466D01*
X141812243Y-86938933D01*
X141812246Y-86938936D01*
X141818149Y-86942880D01*
X141900660Y-86998013D01*
X141900667Y-86998016D01*
X141906034Y-87000885D01*
X141904759Y-87003269D01*
X141950074Y-87039806D01*
X141972122Y-87106106D01*
X141954825Y-87173801D01*
X141903676Y-87221398D01*
X141848200Y-87234500D01*
X141773992Y-87234500D01*
X141575880Y-87273907D01*
X141575872Y-87273909D01*
X141392027Y-87350061D01*
X141344574Y-87359500D01*
X140101303Y-87359500D01*
X139927341Y-87394103D01*
X139927329Y-87394106D01*
X139845392Y-87428045D01*
X139845393Y-87428046D01*
X139763455Y-87461985D01*
X139675040Y-87521063D01*
X139675039Y-87521064D01*
X139615961Y-87560537D01*
X138750537Y-88425961D01*
X138730406Y-88456091D01*
X138651988Y-88573449D01*
X138632204Y-88621214D01*
X138584105Y-88737333D01*
X138584103Y-88737341D01*
X138549500Y-88911303D01*
X138549500Y-90315548D01*
X138529815Y-90382587D01*
X138477011Y-90428342D01*
X138407853Y-90438286D01*
X138344297Y-90409261D01*
X138337819Y-90403229D01*
X137411819Y-89477229D01*
X137378334Y-89415906D01*
X137375500Y-89389548D01*
X137375500Y-87694854D01*
X137394507Y-87628881D01*
X137399386Y-87621117D01*
X137475789Y-87499522D01*
X137535368Y-87329255D01*
X137535369Y-87329249D01*
X137555565Y-87150003D01*
X137555565Y-87149996D01*
X137535369Y-86970750D01*
X137535368Y-86970745D01*
X137525618Y-86942880D01*
X137475789Y-86800478D01*
X137379816Y-86647738D01*
X137252262Y-86520184D01*
X137099523Y-86424211D01*
X136929254Y-86364631D01*
X136929249Y-86364630D01*
X136750004Y-86344435D01*
X136749996Y-86344435D01*
X136570750Y-86364630D01*
X136570745Y-86364631D01*
X136400476Y-86424211D01*
X136247737Y-86520184D01*
X136120184Y-86647737D01*
X136024211Y-86800476D01*
X135964631Y-86970745D01*
X135964630Y-86970750D01*
X135944435Y-87149996D01*
X135944435Y-87150003D01*
X135964630Y-87329249D01*
X135964631Y-87329254D01*
X136024211Y-87499524D01*
X136105493Y-87628881D01*
X136124500Y-87694854D01*
X136124500Y-89761611D01*
X136130677Y-89792664D01*
X136130677Y-89792665D01*
X136148535Y-89882445D01*
X136148536Y-89882449D01*
X136148537Y-89882452D01*
X136156004Y-89900476D01*
X136156004Y-89900477D01*
X136156005Y-89900481D01*
X136195685Y-89996280D01*
X136195687Y-89996283D01*
X136195688Y-89996286D01*
X136219996Y-90032665D01*
X136229914Y-90047507D01*
X136229915Y-90047509D01*
X136264141Y-90098733D01*
X136355586Y-90190178D01*
X136355608Y-90190198D01*
X137788181Y-91622771D01*
X137821666Y-91684094D01*
X137824500Y-91710452D01*
X137824500Y-91905145D01*
X137805494Y-91971117D01*
X137724211Y-92100476D01*
X137664631Y-92270745D01*
X137664630Y-92270750D01*
X137644435Y-92449996D01*
X137644435Y-92450003D01*
X137664630Y-92629249D01*
X137664631Y-92629254D01*
X137724211Y-92799523D01*
X137820184Y-92952262D01*
X137947738Y-93079816D01*
X138038080Y-93136582D01*
X138097966Y-93174211D01*
X138100478Y-93175789D01*
X138171098Y-93200500D01*
X138270745Y-93235368D01*
X138270750Y-93235369D01*
X138449996Y-93255565D01*
X138450000Y-93255565D01*
X138450004Y-93255565D01*
X138629249Y-93235369D01*
X138629252Y-93235368D01*
X138629255Y-93235368D01*
X138799522Y-93175789D01*
X138952262Y-93079816D01*
X139079816Y-92952262D01*
X139175789Y-92799522D01*
X139235368Y-92629255D01*
X139238981Y-92597179D01*
X139266047Y-92532768D01*
X139323642Y-92493212D01*
X139393479Y-92491073D01*
X139449883Y-92523383D01*
X139925960Y-92999460D01*
X139925964Y-92999463D01*
X140073446Y-93098008D01*
X140073450Y-93098010D01*
X140073453Y-93098012D01*
X140237334Y-93165895D01*
X140411303Y-93200499D01*
X140411307Y-93200500D01*
X140411308Y-93200500D01*
X140588693Y-93200500D01*
X140588694Y-93200499D01*
X140762666Y-93165895D01*
X140926546Y-93098012D01*
X141074035Y-92999463D01*
X141199463Y-92874035D01*
X141298012Y-92726546D01*
X141365895Y-92562666D01*
X141400500Y-92388692D01*
X141400500Y-92211308D01*
X141365895Y-92037334D01*
X141349168Y-91996952D01*
X141341699Y-91927482D01*
X141372974Y-91865003D01*
X141433063Y-91829351D01*
X141463721Y-91825499D01*
X142897872Y-91825499D01*
X142957483Y-91819091D01*
X143092331Y-91768796D01*
X143207546Y-91682546D01*
X143293796Y-91567331D01*
X143344091Y-91432483D01*
X143350500Y-91372873D01*
X143350499Y-90633360D01*
X143370183Y-90566322D01*
X143422987Y-90520567D01*
X143492146Y-90510623D01*
X143555702Y-90539648D01*
X143562180Y-90545680D01*
X144037246Y-91020745D01*
X144490536Y-91474035D01*
X144566023Y-91549522D01*
X144615966Y-91599465D01*
X144763449Y-91698011D01*
X144763451Y-91698012D01*
X144763453Y-91698013D01*
X144794153Y-91710729D01*
X144794154Y-91710730D01*
X144794155Y-91710730D01*
X144927334Y-91765895D01*
X145101304Y-91800499D01*
X145101308Y-91800500D01*
X145101309Y-91800500D01*
X145815548Y-91800500D01*
X145882587Y-91820185D01*
X145928342Y-91872989D01*
X145938286Y-91942147D01*
X145909261Y-92005703D01*
X145903229Y-92012181D01*
X144677229Y-93238181D01*
X144615906Y-93271666D01*
X144589548Y-93274500D01*
X142994855Y-93274500D01*
X142928883Y-93255494D01*
X142799523Y-93174211D01*
X142629254Y-93114631D01*
X142629249Y-93114630D01*
X142450004Y-93094435D01*
X142449996Y-93094435D01*
X142270750Y-93114630D01*
X142270745Y-93114631D01*
X142100476Y-93174211D01*
X141947737Y-93270184D01*
X141820184Y-93397737D01*
X141724211Y-93550476D01*
X141664631Y-93720745D01*
X141664630Y-93720750D01*
X141654081Y-93814383D01*
X141627015Y-93878797D01*
X141569420Y-93918353D01*
X141530861Y-93924500D01*
X140917741Y-93924500D01*
X140917721Y-93924499D01*
X140911607Y-93924499D01*
X140788394Y-93924499D01*
X140687597Y-93944548D01*
X140687592Y-93944548D01*
X140667551Y-93948535D01*
X140647153Y-93956984D01*
X140635997Y-93961606D01*
X140635996Y-93961606D01*
X140553721Y-93995684D01*
X140553708Y-93995691D01*
X140451267Y-94064141D01*
X140451263Y-94064144D01*
X139027229Y-95488181D01*
X138965906Y-95521666D01*
X138939548Y-95524500D01*
X136594855Y-95524500D01*
X136528883Y-95505494D01*
X136399523Y-95424211D01*
X136229254Y-95364631D01*
X136229249Y-95364630D01*
X136050004Y-95344435D01*
X136049996Y-95344435D01*
X135870750Y-95364630D01*
X135870745Y-95364631D01*
X135700476Y-95424211D01*
X135547737Y-95520184D01*
X135420184Y-95647737D01*
X135324211Y-95800476D01*
X135264631Y-95970745D01*
X135264630Y-95970750D01*
X135244435Y-96149996D01*
X135244435Y-96150003D01*
X135264630Y-96329249D01*
X135264631Y-96329254D01*
X135324211Y-96499523D01*
X135355130Y-96548730D01*
X135420184Y-96652262D01*
X135547738Y-96779816D01*
X135571117Y-96794506D01*
X135690365Y-96869435D01*
X135700478Y-96875789D01*
X135763202Y-96897737D01*
X135870745Y-96935368D01*
X135870750Y-96935369D01*
X136049996Y-96955565D01*
X136050000Y-96955565D01*
X136050004Y-96955565D01*
X136229249Y-96935369D01*
X136229252Y-96935368D01*
X136229255Y-96935368D01*
X136399522Y-96875789D01*
X136528883Y-96794505D01*
X136594855Y-96775500D01*
X139311608Y-96775500D01*
X139311608Y-96775499D01*
X139375978Y-96762696D01*
X139375979Y-96762696D01*
X139395150Y-96758882D01*
X139432452Y-96751463D01*
X139465792Y-96737652D01*
X139546286Y-96704312D01*
X139597509Y-96670084D01*
X139648733Y-96635858D01*
X139735858Y-96548733D01*
X139735858Y-96548731D01*
X139746066Y-96538524D01*
X139746067Y-96538521D01*
X140392820Y-95891769D01*
X140454142Y-95858285D01*
X140523834Y-95863269D01*
X140579767Y-95905141D01*
X140604184Y-95970605D01*
X140604500Y-95979451D01*
X140604500Y-97310370D01*
X140604501Y-97310376D01*
X140610908Y-97369983D01*
X140661202Y-97504828D01*
X140661206Y-97504835D01*
X140747452Y-97620044D01*
X140747455Y-97620047D01*
X140862664Y-97706293D01*
X140862669Y-97706296D01*
X140890539Y-97716690D01*
X140946473Y-97758561D01*
X140970891Y-97824024D01*
X140956040Y-97892298D01*
X140947525Y-97905759D01*
X140814783Y-98088461D01*
X140710950Y-98292244D01*
X140640278Y-98509750D01*
X140640278Y-98509753D01*
X140604500Y-98735646D01*
X140604500Y-98964353D01*
X140640278Y-99190246D01*
X140640278Y-99190249D01*
X140710950Y-99407755D01*
X140809147Y-99600476D01*
X140814783Y-99611538D01*
X140949214Y-99796566D01*
X141110934Y-99958286D01*
X141149053Y-99985981D01*
X141195438Y-100019682D01*
X141238103Y-100075013D01*
X141244082Y-100144626D01*
X141211476Y-100206421D01*
X141195438Y-100220318D01*
X141110932Y-100281715D01*
X140949216Y-100443431D01*
X140949216Y-100443432D01*
X140949214Y-100443434D01*
X140934017Y-100464351D01*
X140814783Y-100628461D01*
X140710950Y-100832244D01*
X140640278Y-101049750D01*
X140640278Y-101049753D01*
X140640278Y-101049755D01*
X140604500Y-101275646D01*
X140604500Y-101504354D01*
X140606957Y-101519866D01*
X140640278Y-101730246D01*
X140640278Y-101730249D01*
X140710950Y-101947755D01*
X140814783Y-102151538D01*
X140949214Y-102336566D01*
X141110934Y-102498286D01*
X141295962Y-102632717D01*
X141433235Y-102702661D01*
X141499744Y-102736549D01*
X141717251Y-102807221D01*
X141717252Y-102807221D01*
X141717255Y-102807222D01*
X141943146Y-102843000D01*
X141943147Y-102843000D01*
X142266853Y-102843000D01*
X142266854Y-102843000D01*
X142492745Y-102807222D01*
X142492748Y-102807221D01*
X142492749Y-102807221D01*
X142710255Y-102736549D01*
X142710255Y-102736548D01*
X142710258Y-102736548D01*
X142914038Y-102632717D01*
X143099066Y-102498286D01*
X143260786Y-102336566D01*
X143395217Y-102151538D01*
X143499048Y-101947758D01*
X143518544Y-101887755D01*
X143569721Y-101730249D01*
X143569721Y-101730248D01*
X143569722Y-101730245D01*
X143605500Y-101504354D01*
X143605500Y-101275646D01*
X143569722Y-101049755D01*
X143569721Y-101049751D01*
X143569721Y-101049750D01*
X143499049Y-100832244D01*
X143472335Y-100779815D01*
X143395217Y-100628462D01*
X143260786Y-100443434D01*
X143099066Y-100281714D01*
X143014559Y-100220316D01*
X142971896Y-100164988D01*
X142965917Y-100095375D01*
X142998523Y-100033580D01*
X143014556Y-100019685D01*
X143099066Y-99958286D01*
X143260786Y-99796566D01*
X143395217Y-99611538D01*
X143499048Y-99407758D01*
X143506475Y-99384900D01*
X143569721Y-99190249D01*
X143569721Y-99190248D01*
X143569722Y-99190245D01*
X143605500Y-98964354D01*
X143605500Y-98735646D01*
X143569722Y-98509755D01*
X143569721Y-98509751D01*
X143569721Y-98509750D01*
X143499049Y-98292244D01*
X143477525Y-98250000D01*
X143395217Y-98088462D01*
X143262472Y-97905755D01*
X143238994Y-97839953D01*
X143254819Y-97771899D01*
X143304925Y-97723204D01*
X143319455Y-97716692D01*
X143347331Y-97706296D01*
X143462546Y-97620046D01*
X143548796Y-97504831D01*
X143599091Y-97369983D01*
X143605500Y-97310373D01*
X143605499Y-95309628D01*
X143605498Y-95309627D01*
X143605321Y-95306304D01*
X143607028Y-95306212D01*
X143617211Y-95249635D01*
X147299500Y-95249635D01*
X147299500Y-97250370D01*
X147299501Y-97250376D01*
X147305908Y-97309983D01*
X147356202Y-97444828D01*
X147356206Y-97444835D01*
X147442452Y-97560044D01*
X147442455Y-97560047D01*
X147557664Y-97646293D01*
X147557669Y-97646296D01*
X147585539Y-97656690D01*
X147641473Y-97698561D01*
X147665891Y-97764024D01*
X147651040Y-97832298D01*
X147642526Y-97845756D01*
X147636353Y-97854254D01*
X147509783Y-98028461D01*
X147405950Y-98232244D01*
X147335278Y-98449750D01*
X147335278Y-98449753D01*
X147299500Y-98675646D01*
X147299500Y-98904353D01*
X147335278Y-99130246D01*
X147335278Y-99130249D01*
X147405950Y-99347755D01*
X147492677Y-99517966D01*
X147509783Y-99551538D01*
X147644214Y-99736566D01*
X147805934Y-99898286D01*
X147875423Y-99948773D01*
X147890438Y-99959682D01*
X147933103Y-100015013D01*
X147939082Y-100084626D01*
X147906476Y-100146421D01*
X147890438Y-100160318D01*
X147805932Y-100221715D01*
X147644216Y-100383431D01*
X147644216Y-100383432D01*
X147644214Y-100383434D01*
X147629596Y-100403554D01*
X147509783Y-100568461D01*
X147405950Y-100772244D01*
X147335278Y-100989750D01*
X147335278Y-100989753D01*
X147299500Y-101215646D01*
X147299500Y-101444353D01*
X147335278Y-101670246D01*
X147335278Y-101670249D01*
X147405950Y-101887755D01*
X147496474Y-102065417D01*
X147509783Y-102091538D01*
X147644214Y-102276566D01*
X147805934Y-102438286D01*
X147990962Y-102572717D01*
X148194742Y-102676548D01*
X148194744Y-102676549D01*
X148412251Y-102747221D01*
X148412252Y-102747221D01*
X148412255Y-102747222D01*
X148638146Y-102783000D01*
X148638147Y-102783000D01*
X148961853Y-102783000D01*
X148961854Y-102783000D01*
X149187745Y-102747222D01*
X149187748Y-102747221D01*
X149187749Y-102747221D01*
X149405255Y-102676549D01*
X149405255Y-102676548D01*
X149405258Y-102676548D01*
X149609038Y-102572717D01*
X149794066Y-102438286D01*
X149955786Y-102276566D01*
X150090217Y-102091538D01*
X150194048Y-101887758D01*
X150264722Y-101670245D01*
X150300500Y-101444354D01*
X150300500Y-101215646D01*
X150264722Y-100989755D01*
X150264721Y-100989751D01*
X150264721Y-100989750D01*
X150194049Y-100772244D01*
X150097141Y-100582052D01*
X150090217Y-100568462D01*
X149955786Y-100383434D01*
X149794066Y-100221714D01*
X149709559Y-100160316D01*
X149666896Y-100104988D01*
X149662173Y-100049995D01*
X187794953Y-100049995D01*
X187794953Y-100050004D01*
X187815113Y-100319026D01*
X187815113Y-100319028D01*
X187875142Y-100582033D01*
X187875148Y-100582052D01*
X187973709Y-100833181D01*
X187973708Y-100833181D01*
X188108600Y-101066818D01*
X188162294Y-101134150D01*
X188162295Y-101134150D01*
X188998958Y-100297487D01*
X189023978Y-100357890D01*
X189095112Y-100464351D01*
X189185649Y-100554888D01*
X189292110Y-100626022D01*
X189352511Y-100651041D01*
X188514848Y-101488703D01*
X188697476Y-101613216D01*
X188697485Y-101613221D01*
X188940539Y-101730269D01*
X188940537Y-101730269D01*
X189198337Y-101809790D01*
X189198343Y-101809792D01*
X189465101Y-101849999D01*
X189465110Y-101850000D01*
X189734890Y-101850000D01*
X189734898Y-101849999D01*
X190001656Y-101809792D01*
X190001662Y-101809790D01*
X190259461Y-101730269D01*
X190502516Y-101613221D01*
X190502517Y-101613220D01*
X190685150Y-101488703D01*
X189847487Y-100651041D01*
X189907890Y-100626022D01*
X190014351Y-100554888D01*
X190104888Y-100464351D01*
X190176022Y-100357890D01*
X190201041Y-100297487D01*
X191037703Y-101134150D01*
X191037704Y-101134149D01*
X191091400Y-101066818D01*
X191226290Y-100833181D01*
X191324851Y-100582052D01*
X191324857Y-100582033D01*
X191384886Y-100319028D01*
X191384886Y-100319026D01*
X191405047Y-100050004D01*
X191405047Y-100049995D01*
X191384886Y-99780973D01*
X191384886Y-99780971D01*
X191324857Y-99517966D01*
X191324851Y-99517947D01*
X191226290Y-99266818D01*
X191226291Y-99266818D01*
X191091400Y-99033182D01*
X191091393Y-99033171D01*
X191037704Y-98965849D01*
X191037703Y-98965848D01*
X190201041Y-99802511D01*
X190176022Y-99742110D01*
X190104888Y-99635649D01*
X190014351Y-99545112D01*
X189907890Y-99473978D01*
X189847488Y-99448958D01*
X190685150Y-98611295D01*
X190502524Y-98486783D01*
X190502516Y-98486778D01*
X190259460Y-98369730D01*
X190259462Y-98369730D01*
X190001662Y-98290209D01*
X190001656Y-98290207D01*
X189734898Y-98250000D01*
X189465101Y-98250000D01*
X189198343Y-98290207D01*
X189198337Y-98290209D01*
X188940538Y-98369730D01*
X188697482Y-98486780D01*
X188697469Y-98486787D01*
X188514848Y-98611294D01*
X189352512Y-99448958D01*
X189292110Y-99473978D01*
X189185649Y-99545112D01*
X189095112Y-99635649D01*
X189023978Y-99742110D01*
X188998958Y-99802512D01*
X188162294Y-98965848D01*
X188108602Y-99033177D01*
X187973709Y-99266818D01*
X187875148Y-99517947D01*
X187875142Y-99517966D01*
X187815113Y-99780971D01*
X187815113Y-99780973D01*
X187794953Y-100049995D01*
X149662173Y-100049995D01*
X149660917Y-100035375D01*
X149693523Y-99973580D01*
X149709556Y-99959685D01*
X149794066Y-99898286D01*
X149955786Y-99736566D01*
X150090217Y-99551538D01*
X150194048Y-99347758D01*
X150253549Y-99164632D01*
X150264721Y-99130249D01*
X150264721Y-99130248D01*
X150264722Y-99130245D01*
X150300500Y-98904354D01*
X150300500Y-98675646D01*
X150264722Y-98449755D01*
X150264721Y-98449751D01*
X150264721Y-98449750D01*
X150194049Y-98232244D01*
X150170165Y-98185369D01*
X150090217Y-98028462D01*
X149957472Y-97845755D01*
X149933994Y-97779953D01*
X149949819Y-97711899D01*
X149999925Y-97663204D01*
X150014455Y-97656692D01*
X150042331Y-97646296D01*
X150157546Y-97560046D01*
X150243796Y-97444831D01*
X150294091Y-97309983D01*
X150300500Y-97250373D01*
X150300500Y-96999500D01*
X150320185Y-96932461D01*
X150372989Y-96886706D01*
X150424500Y-96875500D01*
X150661607Y-96875500D01*
X150722029Y-96863481D01*
X150782452Y-96851463D01*
X150782455Y-96851461D01*
X150782458Y-96851461D01*
X150815787Y-96837654D01*
X150815786Y-96837654D01*
X150815792Y-96837652D01*
X150896286Y-96804312D01*
X150958567Y-96762696D01*
X150998733Y-96735858D01*
X151085858Y-96648733D01*
X151085859Y-96648730D01*
X151522773Y-96211816D01*
X151584095Y-96178334D01*
X151610453Y-96175500D01*
X153955145Y-96175500D01*
X154021116Y-96194505D01*
X154150478Y-96275789D01*
X154303258Y-96329249D01*
X154320745Y-96335368D01*
X154320750Y-96335369D01*
X154499996Y-96355565D01*
X154500000Y-96355565D01*
X154500004Y-96355565D01*
X154679249Y-96335369D01*
X154679252Y-96335368D01*
X154679255Y-96335368D01*
X154849522Y-96275789D01*
X155002262Y-96179816D01*
X155129816Y-96052262D01*
X155225789Y-95899522D01*
X155285368Y-95729255D01*
X155305565Y-95550000D01*
X155300550Y-95505494D01*
X155285369Y-95370750D01*
X155285368Y-95370745D01*
X155272989Y-95335368D01*
X155225789Y-95200478D01*
X155129816Y-95047738D01*
X155002262Y-94920184D01*
X154969379Y-94899522D01*
X154849523Y-94824211D01*
X154679254Y-94764631D01*
X154679249Y-94764630D01*
X154500004Y-94744435D01*
X154499996Y-94744435D01*
X154320750Y-94764630D01*
X154320745Y-94764631D01*
X154150476Y-94824211D01*
X154021117Y-94905494D01*
X153955145Y-94924500D01*
X151361606Y-94924500D01*
X151238393Y-94924500D01*
X151160699Y-94939954D01*
X151160698Y-94939953D01*
X151117554Y-94948535D01*
X151117545Y-94948538D01*
X151003716Y-94995687D01*
X150925818Y-95047738D01*
X150925817Y-95047739D01*
X150901263Y-95064144D01*
X150901262Y-95064145D01*
X150512180Y-95453229D01*
X150450857Y-95486714D01*
X150381166Y-95481730D01*
X150325232Y-95439859D01*
X150300815Y-95374394D01*
X150300499Y-95365548D01*
X150300499Y-95249629D01*
X150300498Y-95249623D01*
X150300497Y-95249616D01*
X150294091Y-95190017D01*
X150290286Y-95179816D01*
X150243797Y-95055171D01*
X150243793Y-95055164D01*
X150157546Y-94939954D01*
X150157544Y-94939952D01*
X150042335Y-94853706D01*
X150042328Y-94853702D01*
X149907482Y-94803408D01*
X149907483Y-94803408D01*
X149847883Y-94797001D01*
X149847881Y-94797000D01*
X149847873Y-94797000D01*
X149847864Y-94797000D01*
X147752129Y-94797000D01*
X147752123Y-94797001D01*
X147692516Y-94803408D01*
X147557671Y-94853702D01*
X147557664Y-94853706D01*
X147442455Y-94939952D01*
X147442454Y-94939954D01*
X147356206Y-95055164D01*
X147356202Y-95055171D01*
X147305908Y-95190017D01*
X147300100Y-95244044D01*
X147299501Y-95249623D01*
X147299500Y-95249635D01*
X143617211Y-95249635D01*
X143618217Y-95244044D01*
X143665805Y-95192886D01*
X143729125Y-95175500D01*
X145811608Y-95175500D01*
X145811608Y-95175499D01*
X145875978Y-95162696D01*
X145875979Y-95162696D01*
X145895150Y-95158882D01*
X145932452Y-95151463D01*
X145965792Y-95137652D01*
X146046286Y-95104312D01*
X146097509Y-95070084D01*
X146148733Y-95035858D01*
X146235858Y-94948733D01*
X146235859Y-94948731D01*
X146242925Y-94941665D01*
X146242927Y-94941661D01*
X147722771Y-93461819D01*
X147784094Y-93428334D01*
X147810452Y-93425500D01*
X148705145Y-93425500D01*
X148771117Y-93444506D01*
X148867306Y-93504946D01*
X148900478Y-93525789D01*
X149070745Y-93585368D01*
X149070750Y-93585369D01*
X149249996Y-93605565D01*
X149250000Y-93605565D01*
X149250004Y-93605565D01*
X149429249Y-93585369D01*
X149429252Y-93585368D01*
X149429255Y-93585368D01*
X149599522Y-93525789D01*
X149752262Y-93429816D01*
X149879816Y-93302262D01*
X149975789Y-93149522D01*
X150035368Y-92979255D01*
X150035369Y-92979249D01*
X150055565Y-92800003D01*
X150055565Y-92799996D01*
X150035369Y-92620750D01*
X150035368Y-92620745D01*
X150015042Y-92562658D01*
X149975789Y-92450478D01*
X149879816Y-92297738D01*
X149752262Y-92170184D01*
X149727802Y-92154815D01*
X149599521Y-92074210D01*
X149506160Y-92041542D01*
X149449383Y-92000820D01*
X149423636Y-91935867D01*
X149437092Y-91867306D01*
X149485479Y-91816903D01*
X149547114Y-91800500D01*
X154193693Y-91800500D01*
X154193694Y-91800499D01*
X154367666Y-91765895D01*
X154449606Y-91731953D01*
X154531547Y-91698013D01*
X154626555Y-91634530D01*
X154679036Y-91599464D01*
X154903500Y-91375000D01*
X179994564Y-91375000D01*
X180010803Y-91622771D01*
X180014287Y-91675918D01*
X180014288Y-91675930D01*
X180073118Y-91971683D01*
X180073122Y-91971698D01*
X180170053Y-92257247D01*
X180170062Y-92257268D01*
X180303431Y-92527713D01*
X180303435Y-92527720D01*
X180470973Y-92778459D01*
X180669810Y-93005189D01*
X180896540Y-93204026D01*
X181147279Y-93371564D01*
X181147286Y-93371568D01*
X181417731Y-93504937D01*
X181417736Y-93504939D01*
X181417748Y-93504945D01*
X181703309Y-93601880D01*
X181903251Y-93641651D01*
X181999069Y-93660711D01*
X181999070Y-93660711D01*
X181999080Y-93660713D01*
X182300000Y-93680436D01*
X182600920Y-93660713D01*
X182896691Y-93601880D01*
X183182252Y-93504945D01*
X183452718Y-93371566D01*
X183703461Y-93204025D01*
X183930189Y-93005189D01*
X184129025Y-92778461D01*
X184296566Y-92527718D01*
X184429945Y-92257252D01*
X184526880Y-91971691D01*
X184585713Y-91675920D01*
X184605436Y-91375000D01*
X184585713Y-91074080D01*
X184526880Y-90778309D01*
X184429945Y-90492748D01*
X184403087Y-90438286D01*
X184296568Y-90222286D01*
X184296564Y-90222279D01*
X184129026Y-89971540D01*
X183930189Y-89744810D01*
X183703459Y-89545973D01*
X183452720Y-89378435D01*
X183452713Y-89378431D01*
X183182268Y-89245062D01*
X183182247Y-89245053D01*
X182896698Y-89148122D01*
X182896692Y-89148120D01*
X182896691Y-89148120D01*
X182896689Y-89148119D01*
X182896683Y-89148118D01*
X182600930Y-89089288D01*
X182600921Y-89089287D01*
X182600920Y-89089287D01*
X182300000Y-89069564D01*
X181999080Y-89089287D01*
X181999079Y-89089287D01*
X181999069Y-89089288D01*
X181703316Y-89148118D01*
X181703301Y-89148122D01*
X181417752Y-89245053D01*
X181417731Y-89245062D01*
X181147286Y-89378431D01*
X181147279Y-89378435D01*
X180896540Y-89545973D01*
X180669810Y-89744810D01*
X180470973Y-89971540D01*
X180303435Y-90222279D01*
X180303431Y-90222286D01*
X180170062Y-90492731D01*
X180170053Y-90492752D01*
X180073122Y-90778301D01*
X180073118Y-90778316D01*
X180014288Y-91074069D01*
X180014287Y-91074079D01*
X180014287Y-91074080D01*
X179994564Y-91375000D01*
X154903500Y-91375000D01*
X156249464Y-90029035D01*
X156287882Y-89971539D01*
X156348013Y-89881547D01*
X156382614Y-89798012D01*
X156415895Y-89717666D01*
X156444792Y-89572385D01*
X156477176Y-89510476D01*
X156537891Y-89475902D01*
X156590600Y-89474961D01*
X156718992Y-89500499D01*
X156718996Y-89500500D01*
X156718997Y-89500500D01*
X156921004Y-89500500D01*
X156921005Y-89500499D01*
X157119127Y-89461091D01*
X157305756Y-89383786D01*
X157473718Y-89271558D01*
X157473721Y-89271555D01*
X157512819Y-89232458D01*
X157574142Y-89198973D01*
X157643834Y-89203957D01*
X157699767Y-89245829D01*
X157724184Y-89311293D01*
X157724500Y-89320139D01*
X157724500Y-89661606D01*
X157744391Y-89761607D01*
X157748538Y-89782455D01*
X157748538Y-89782456D01*
X157752767Y-89792664D01*
X157752769Y-89792669D01*
X157795685Y-89896281D01*
X157795687Y-89896284D01*
X157795688Y-89896286D01*
X157798489Y-89900478D01*
X157814541Y-89924500D01*
X157814542Y-89924502D01*
X157864141Y-89998732D01*
X157864144Y-89998736D01*
X157955586Y-90090178D01*
X157955608Y-90090198D01*
X158173787Y-90308377D01*
X158207272Y-90369700D01*
X158209326Y-90382173D01*
X158214630Y-90429249D01*
X158274210Y-90599521D01*
X158283880Y-90614910D01*
X158370184Y-90752262D01*
X158497738Y-90879816D01*
X158650478Y-90975789D01*
X158778955Y-91020745D01*
X158820745Y-91035368D01*
X158820750Y-91035369D01*
X158999996Y-91055565D01*
X159000000Y-91055565D01*
X159000004Y-91055565D01*
X159179249Y-91035369D01*
X159179252Y-91035368D01*
X159179255Y-91035368D01*
X159349522Y-90975789D01*
X159502262Y-90879816D01*
X159629816Y-90752262D01*
X159725789Y-90599522D01*
X159785368Y-90429255D01*
X159787621Y-90409261D01*
X159805565Y-90250003D01*
X159805565Y-90249996D01*
X159785369Y-90070750D01*
X159785368Y-90070745D01*
X159771655Y-90031556D01*
X159725789Y-89900478D01*
X159713889Y-89881540D01*
X159658046Y-89792666D01*
X159629816Y-89747738D01*
X159502262Y-89620184D01*
X159478996Y-89605565D01*
X159349521Y-89524210D01*
X159179249Y-89464630D01*
X159132173Y-89459326D01*
X159067759Y-89432259D01*
X159058377Y-89423787D01*
X159011819Y-89377229D01*
X158978334Y-89315906D01*
X158975500Y-89289548D01*
X158975500Y-88799996D01*
X163594435Y-88799996D01*
X163594435Y-88800003D01*
X163614630Y-88979249D01*
X163614631Y-88979254D01*
X163674211Y-89149523D01*
X163725327Y-89230873D01*
X163770184Y-89302262D01*
X163897738Y-89429816D01*
X163969586Y-89474961D01*
X164047966Y-89524211D01*
X164050478Y-89525789D01*
X164183650Y-89572388D01*
X164220745Y-89585368D01*
X164220750Y-89585369D01*
X164399996Y-89605565D01*
X164400000Y-89605565D01*
X164400004Y-89605565D01*
X164579249Y-89585369D01*
X164579252Y-89585368D01*
X164579255Y-89585368D01*
X164749522Y-89525789D01*
X164902262Y-89429816D01*
X165029816Y-89302262D01*
X165125789Y-89149522D01*
X165185368Y-88979255D01*
X165193024Y-88911308D01*
X165205565Y-88800003D01*
X165205565Y-88799996D01*
X165185369Y-88620750D01*
X165185368Y-88620745D01*
X165125789Y-88450478D01*
X165125188Y-88449522D01*
X165086582Y-88388080D01*
X165029816Y-88297738D01*
X164902262Y-88170184D01*
X164790570Y-88100003D01*
X164749523Y-88074211D01*
X164579254Y-88014631D01*
X164579249Y-88014630D01*
X164400004Y-87994435D01*
X164399996Y-87994435D01*
X164220750Y-88014630D01*
X164220745Y-88014631D01*
X164050476Y-88074211D01*
X163897737Y-88170184D01*
X163770184Y-88297737D01*
X163674211Y-88450476D01*
X163614631Y-88620745D01*
X163614630Y-88620750D01*
X163594435Y-88799996D01*
X158975500Y-88799996D01*
X158975500Y-86438396D01*
X158975500Y-86438394D01*
X158951463Y-86317548D01*
X158951461Y-86317543D01*
X158931962Y-86270468D01*
X158931947Y-86270435D01*
X158931932Y-86270397D01*
X158904312Y-86203715D01*
X158887256Y-86178190D01*
X158835858Y-86101267D01*
X158835856Y-86101264D01*
X158745637Y-86011045D01*
X158745606Y-86011016D01*
X157761819Y-85027229D01*
X157728334Y-84965906D01*
X157725500Y-84939548D01*
X157725500Y-80694854D01*
X157744507Y-80628881D01*
X157825788Y-80499524D01*
X157831208Y-80484035D01*
X157885368Y-80329255D01*
X157895883Y-80235930D01*
X157905565Y-80150003D01*
X157905565Y-80149996D01*
X157885369Y-79970750D01*
X157885368Y-79970745D01*
X157825788Y-79800476D01*
X157729815Y-79647737D01*
X157602262Y-79520184D01*
X157449523Y-79424211D01*
X157279254Y-79364631D01*
X157279249Y-79364630D01*
X157100004Y-79344435D01*
X157099996Y-79344435D01*
X156988383Y-79357010D01*
X156919561Y-79344955D01*
X156868182Y-79297606D01*
X156850500Y-79233790D01*
X156850500Y-78652135D01*
X159217121Y-78652135D01*
X159217121Y-80347870D01*
X159217122Y-80347876D01*
X159223529Y-80407483D01*
X159273823Y-80542328D01*
X159273827Y-80542335D01*
X159360073Y-80657544D01*
X159360076Y-80657547D01*
X159475285Y-80743793D01*
X159475292Y-80743797D01*
X159610138Y-80794091D01*
X159610137Y-80794091D01*
X159617065Y-80794835D01*
X159669748Y-80800500D01*
X161365493Y-80800499D01*
X161425104Y-80794091D01*
X161559952Y-80743796D01*
X161675167Y-80657546D01*
X161761417Y-80542331D01*
X161811712Y-80407483D01*
X161811713Y-80407472D01*
X161812986Y-80402088D01*
X161847554Y-80341369D01*
X161909462Y-80308978D01*
X161979054Y-80315199D01*
X162021346Y-80342912D01*
X162178479Y-80500045D01*
X162178482Y-80500047D01*
X162364887Y-80630568D01*
X162571125Y-80726739D01*
X162790929Y-80785635D01*
X162952851Y-80799801D01*
X163017619Y-80805468D01*
X163017621Y-80805468D01*
X163017623Y-80805468D01*
X163074428Y-80800498D01*
X163244313Y-80785635D01*
X163464117Y-80726739D01*
X163670355Y-80630568D01*
X163856760Y-80500047D01*
X164017668Y-80339139D01*
X164148189Y-80152734D01*
X164244360Y-79946496D01*
X164303256Y-79726692D01*
X164323089Y-79500000D01*
X164303256Y-79273308D01*
X164244360Y-79053504D01*
X164148189Y-78847266D01*
X164017668Y-78660861D01*
X164017666Y-78660858D01*
X163856762Y-78499954D01*
X163670355Y-78369432D01*
X163670353Y-78369431D01*
X163464118Y-78273261D01*
X163464109Y-78273258D01*
X163244318Y-78214366D01*
X163244314Y-78214365D01*
X163244313Y-78214365D01*
X163244312Y-78214364D01*
X163244307Y-78214364D01*
X163017623Y-78194532D01*
X163017619Y-78194532D01*
X162790934Y-78214364D01*
X162790923Y-78214366D01*
X162571132Y-78273258D01*
X162571123Y-78273261D01*
X162364888Y-78369431D01*
X162364886Y-78369432D01*
X162178483Y-78499951D01*
X162021347Y-78657087D01*
X161960024Y-78690571D01*
X161890332Y-78685587D01*
X161834399Y-78643715D01*
X161812990Y-78597923D01*
X161811712Y-78592518D01*
X161761418Y-78457671D01*
X161761414Y-78457664D01*
X161675168Y-78342455D01*
X161675165Y-78342452D01*
X161559956Y-78256206D01*
X161559949Y-78256202D01*
X161425103Y-78205908D01*
X161425104Y-78205908D01*
X161365504Y-78199501D01*
X161365502Y-78199500D01*
X161365494Y-78199500D01*
X161365485Y-78199500D01*
X159669750Y-78199500D01*
X159669744Y-78199501D01*
X159610137Y-78205908D01*
X159475292Y-78256202D01*
X159475285Y-78256206D01*
X159360076Y-78342452D01*
X159360073Y-78342455D01*
X159273827Y-78457664D01*
X159273823Y-78457671D01*
X159223529Y-78592517D01*
X159217122Y-78652116D01*
X159217121Y-78652135D01*
X156850500Y-78652135D01*
X156850500Y-77961307D01*
X156850499Y-77961305D01*
X156849776Y-77957666D01*
X156849776Y-77957665D01*
X156821896Y-77817503D01*
X156815895Y-77787334D01*
X156782167Y-77705909D01*
X156778361Y-77696720D01*
X156778351Y-77696699D01*
X156778339Y-77696668D01*
X156748013Y-77623453D01*
X156684059Y-77527739D01*
X156684059Y-77527738D01*
X156673077Y-77511303D01*
X166699500Y-77511303D01*
X166699500Y-77688696D01*
X166734103Y-77862658D01*
X166734105Y-77862666D01*
X166801988Y-78026548D01*
X166900534Y-78174034D01*
X166900540Y-78174041D01*
X169210536Y-80484035D01*
X169335965Y-80609464D01*
X169335966Y-80609465D01*
X169483446Y-80708009D01*
X169483458Y-80708016D01*
X169615471Y-80762696D01*
X169647334Y-80775894D01*
X169647338Y-80775894D01*
X169647339Y-80775895D01*
X169821305Y-80810500D01*
X169821308Y-80810500D01*
X169821309Y-80810500D01*
X180089617Y-80810500D01*
X180156656Y-80830185D01*
X180200829Y-80879656D01*
X180303431Y-81087713D01*
X180303435Y-81087720D01*
X180470973Y-81338459D01*
X180669810Y-81565189D01*
X180896540Y-81764026D01*
X181147279Y-81931564D01*
X181147286Y-81931568D01*
X181417731Y-82064937D01*
X181417736Y-82064939D01*
X181417748Y-82064945D01*
X181703309Y-82161880D01*
X181903251Y-82201651D01*
X181999069Y-82220711D01*
X181999070Y-82220711D01*
X181999080Y-82220713D01*
X182300000Y-82240436D01*
X182600920Y-82220713D01*
X182896691Y-82161880D01*
X183182252Y-82064945D01*
X183452718Y-81931566D01*
X183703461Y-81764025D01*
X183930189Y-81565189D01*
X184129025Y-81338461D01*
X184296566Y-81087718D01*
X184429945Y-80817252D01*
X184526880Y-80531691D01*
X184585713Y-80235920D01*
X184605436Y-79935000D01*
X184585713Y-79634080D01*
X184526880Y-79338309D01*
X184429945Y-79052748D01*
X184408617Y-79009500D01*
X184296568Y-78782286D01*
X184296564Y-78782279D01*
X184129026Y-78531540D01*
X183930189Y-78304810D01*
X183703459Y-78105973D01*
X183452720Y-77938435D01*
X183452713Y-77938431D01*
X183182268Y-77805062D01*
X183182247Y-77805053D01*
X182896698Y-77708122D01*
X182896692Y-77708120D01*
X182896691Y-77708120D01*
X182896689Y-77708119D01*
X182896683Y-77708118D01*
X182600930Y-77649288D01*
X182600921Y-77649287D01*
X182600920Y-77649287D01*
X182300000Y-77629564D01*
X181999080Y-77649287D01*
X181999079Y-77649287D01*
X181999069Y-77649288D01*
X181703316Y-77708118D01*
X181703301Y-77708122D01*
X181417752Y-77805053D01*
X181417731Y-77805062D01*
X181147286Y-77938431D01*
X181147279Y-77938435D01*
X180896540Y-78105973D01*
X180669810Y-78304810D01*
X180470976Y-78531537D01*
X180303432Y-78782283D01*
X180225487Y-78940343D01*
X180178182Y-78991763D01*
X180114275Y-79009500D01*
X170334361Y-79009500D01*
X170267322Y-78989815D01*
X170246680Y-78973181D01*
X168174041Y-76900540D01*
X168174034Y-76900534D01*
X168026548Y-76801988D01*
X167862666Y-76734105D01*
X167862658Y-76734103D01*
X167688696Y-76699500D01*
X167688692Y-76699500D01*
X167511308Y-76699500D01*
X167511303Y-76699500D01*
X167337341Y-76734103D01*
X167337333Y-76734105D01*
X167173451Y-76801988D01*
X167025965Y-76900534D01*
X167025958Y-76900540D01*
X166900540Y-77025958D01*
X166900534Y-77025965D01*
X166801988Y-77173451D01*
X166734105Y-77337333D01*
X166734103Y-77337341D01*
X166699500Y-77511303D01*
X156673077Y-77511303D01*
X156649467Y-77475968D01*
X156649461Y-77475960D01*
X154974038Y-75800537D01*
X154949002Y-75783809D01*
X154874571Y-75734076D01*
X154874569Y-75734075D01*
X154874569Y-75734074D01*
X154826544Y-75701985D01*
X154826542Y-75701984D01*
X154744607Y-75668046D01*
X154744606Y-75668046D01*
X154662666Y-75634105D01*
X154662658Y-75634103D01*
X154488696Y-75599500D01*
X154488692Y-75599500D01*
X154488691Y-75599500D01*
X153908187Y-75599500D01*
X153841148Y-75579815D01*
X153795393Y-75527011D01*
X153785449Y-75457853D01*
X153786570Y-75451309D01*
X153810499Y-75331006D01*
X153810500Y-75331004D01*
X153810500Y-75128996D01*
X153810499Y-75128992D01*
X153771091Y-74930873D01*
X153693786Y-74744244D01*
X153693784Y-74744241D01*
X153693782Y-74744237D01*
X153581558Y-74576281D01*
X153438718Y-74433441D01*
X153270762Y-74321217D01*
X153270752Y-74321212D01*
X153084127Y-74243909D01*
X153084119Y-74243907D01*
X152886007Y-74204500D01*
X152886003Y-74204500D01*
X152233997Y-74204500D01*
X152233992Y-74204500D01*
X152035880Y-74243907D01*
X152035872Y-74243909D01*
X151849247Y-74321212D01*
X151849237Y-74321217D01*
X151681281Y-74433441D01*
X151538441Y-74576281D01*
X151426217Y-74744237D01*
X151426212Y-74744247D01*
X151348909Y-74930872D01*
X151348907Y-74930880D01*
X151309500Y-75128992D01*
X151309500Y-75331007D01*
X151348907Y-75529119D01*
X151348909Y-75529127D01*
X151426213Y-75715755D01*
X151479904Y-75796109D01*
X151500782Y-75862787D01*
X151482297Y-75930167D01*
X151479904Y-75933891D01*
X151426213Y-76014244D01*
X151348909Y-76200872D01*
X151348907Y-76200880D01*
X151309500Y-76398992D01*
X151309500Y-76601007D01*
X151348906Y-76799115D01*
X151348909Y-76799127D01*
X151382325Y-76879800D01*
X151389794Y-76949270D01*
X151370038Y-76994660D01*
X151370454Y-76994887D01*
X151367919Y-76999528D01*
X151367037Y-77001556D01*
X151366206Y-77002665D01*
X151366202Y-77002672D01*
X151315908Y-77137517D01*
X151309501Y-77197116D01*
X151309500Y-77197135D01*
X151309500Y-78342870D01*
X151309501Y-78342876D01*
X151315908Y-78402483D01*
X151366202Y-78537328D01*
X151366206Y-78537335D01*
X151452452Y-78652544D01*
X151452455Y-78652547D01*
X151567664Y-78738793D01*
X151567671Y-78738797D01*
X151702517Y-78789091D01*
X151702516Y-78789091D01*
X151709444Y-78789835D01*
X151762127Y-78795500D01*
X153357872Y-78795499D01*
X153401936Y-78790762D01*
X153470695Y-78803168D01*
X153502871Y-78826371D01*
X153513181Y-78836681D01*
X153546666Y-78898004D01*
X153549500Y-78924362D01*
X153549500Y-82475638D01*
X153529815Y-82542677D01*
X153513181Y-82563319D01*
X152083319Y-83993181D01*
X152021996Y-84026666D01*
X151995638Y-84029500D01*
X150364835Y-84029500D01*
X150297796Y-84009815D01*
X150290524Y-84004767D01*
X150232331Y-83961204D01*
X150232328Y-83961202D01*
X150097482Y-83910908D01*
X150097483Y-83910908D01*
X150037883Y-83904501D01*
X150037881Y-83904500D01*
X150037873Y-83904500D01*
X150037864Y-83904500D01*
X148442129Y-83904500D01*
X148442123Y-83904501D01*
X148382516Y-83910908D01*
X148247671Y-83961202D01*
X148247664Y-83961206D01*
X148132455Y-84047452D01*
X148132452Y-84047455D01*
X148046206Y-84162664D01*
X148046202Y-84162671D01*
X147995908Y-84297517D01*
X147989501Y-84357116D01*
X147989500Y-84357127D01*
X147989500Y-84826548D01*
X147989501Y-85175500D01*
X147969817Y-85242539D01*
X147917013Y-85288294D01*
X147865501Y-85299500D01*
X143616322Y-85299500D01*
X143549283Y-85279815D01*
X143503528Y-85227011D01*
X143493102Y-85189383D01*
X143485369Y-85120750D01*
X143485368Y-85120748D01*
X143485368Y-85120745D01*
X143425789Y-84950478D01*
X143329816Y-84797738D01*
X143202262Y-84670184D01*
X143190284Y-84662658D01*
X143049521Y-84574210D01*
X142879249Y-84514630D01*
X142832173Y-84509326D01*
X142767759Y-84482259D01*
X142758377Y-84473787D01*
X141790198Y-83505608D01*
X141790178Y-83505586D01*
X141698733Y-83414141D01*
X141647509Y-83379915D01*
X141596286Y-83345688D01*
X141596283Y-83345686D01*
X141596280Y-83345685D01*
X141514003Y-83311606D01*
X141482453Y-83298537D01*
X141472427Y-83296543D01*
X141422029Y-83286518D01*
X141361610Y-83274500D01*
X141361607Y-83274500D01*
X141361606Y-83274500D01*
X136535756Y-83274500D01*
X136468717Y-83254815D01*
X136448075Y-83238181D01*
X136065502Y-82855608D01*
X136065482Y-82855586D01*
X135974040Y-82764144D01*
X135974036Y-82764141D01*
X135922192Y-82729500D01*
X135871591Y-82695689D01*
X135871590Y-82695688D01*
X135871587Y-82695686D01*
X135871584Y-82695685D01*
X135791096Y-82662347D01*
X135757756Y-82648537D01*
X135757748Y-82648535D01*
X135660604Y-82629211D01*
X135660595Y-82629211D01*
X135636911Y-82624500D01*
X135636910Y-82624500D01*
X134453703Y-82624500D01*
X134386664Y-82604815D01*
X134340909Y-82552011D01*
X134330965Y-82482853D01*
X134334085Y-82470088D01*
X134333819Y-82470028D01*
X134335364Y-82463252D01*
X134335368Y-82463244D01*
X134355565Y-82283989D01*
X134351427Y-82247267D01*
X134335369Y-82104739D01*
X134335368Y-82104734D01*
X134316956Y-82052116D01*
X134275789Y-81934467D01*
X134273967Y-81931568D01*
X134227530Y-81857664D01*
X134179816Y-81781727D01*
X134052262Y-81654173D01*
X133988908Y-81614365D01*
X133899523Y-81558200D01*
X133729254Y-81498620D01*
X133729249Y-81498619D01*
X133550004Y-81478424D01*
X133549996Y-81478424D01*
X133370750Y-81498619D01*
X133370745Y-81498620D01*
X133200476Y-81558200D01*
X133045636Y-81655494D01*
X132979664Y-81674500D01*
X131011606Y-81674500D01*
X130888393Y-81674500D01*
X130868218Y-81678513D01*
X130848042Y-81682526D01*
X130848041Y-81682525D01*
X130767553Y-81698535D01*
X130767545Y-81698538D01*
X130653716Y-81745687D01*
X130653707Y-81745692D01*
X130551268Y-81814140D01*
X130507745Y-81857664D01*
X130464142Y-81901267D01*
X130464139Y-81901270D01*
X129716722Y-82648686D01*
X129655399Y-82682171D01*
X129585707Y-82677187D01*
X129563068Y-82665998D01*
X129504524Y-82629211D01*
X129334254Y-82569631D01*
X129334249Y-82569630D01*
X129155004Y-82549435D01*
X129154996Y-82549435D01*
X128975750Y-82569630D01*
X128975745Y-82569631D01*
X128805476Y-82629211D01*
X128652737Y-82725184D01*
X128525184Y-82852737D01*
X128429211Y-83005476D01*
X128369631Y-83175745D01*
X128369630Y-83175750D01*
X128349435Y-83354996D01*
X128349435Y-83355003D01*
X128369630Y-83534249D01*
X128369631Y-83534254D01*
X128429211Y-83704523D01*
X128525184Y-83857262D01*
X128652738Y-83984816D01*
X128715180Y-84024051D01*
X128768488Y-84057547D01*
X128805478Y-84080789D01*
X128855696Y-84098361D01*
X128975745Y-84140368D01*
X128975749Y-84140369D01*
X129057858Y-84149619D01*
X129123675Y-84157035D01*
X129188088Y-84184101D01*
X129227643Y-84241695D01*
X129229782Y-84311532D01*
X129197472Y-84367936D01*
X128902751Y-84662658D01*
X128701269Y-84864140D01*
X128701267Y-84864142D01*
X128657704Y-84907704D01*
X128614142Y-84951266D01*
X128599322Y-84973445D01*
X128584602Y-84995477D01*
X128569014Y-85018804D01*
X128545687Y-85053714D01*
X128526862Y-85099163D01*
X128515834Y-85125789D01*
X128515834Y-85125790D01*
X128498536Y-85167549D01*
X128498536Y-85167550D01*
X128494990Y-85185377D01*
X128484447Y-85238388D01*
X128484446Y-85238394D01*
X128474500Y-85288392D01*
X128474500Y-87555145D01*
X128455494Y-87621117D01*
X128374211Y-87750476D01*
X128314631Y-87920745D01*
X128314630Y-87920750D01*
X128294435Y-88099996D01*
X101058000Y-88099996D01*
X101058000Y-82052135D01*
X103644388Y-82052135D01*
X103644388Y-83747870D01*
X103644389Y-83747876D01*
X103650796Y-83807483D01*
X103701090Y-83942328D01*
X103701094Y-83942335D01*
X103787340Y-84057544D01*
X103787343Y-84057547D01*
X103902552Y-84143793D01*
X103902559Y-84143797D01*
X104037405Y-84194091D01*
X104037404Y-84194091D01*
X104044332Y-84194835D01*
X104097015Y-84200500D01*
X105792760Y-84200499D01*
X105852371Y-84194091D01*
X105987219Y-84143796D01*
X106102434Y-84057546D01*
X106188684Y-83942331D01*
X106238979Y-83807483D01*
X106238980Y-83807472D01*
X106240253Y-83802088D01*
X106274821Y-83741369D01*
X106336729Y-83708978D01*
X106406321Y-83715199D01*
X106448613Y-83742912D01*
X106605746Y-83900045D01*
X106612110Y-83904501D01*
X106792154Y-84030568D01*
X106998392Y-84126739D01*
X107218196Y-84185635D01*
X107380118Y-84199801D01*
X107444886Y-84205468D01*
X107444888Y-84205468D01*
X107444890Y-84205468D01*
X107501695Y-84200498D01*
X107671580Y-84185635D01*
X107891384Y-84126739D01*
X108097622Y-84030568D01*
X108284027Y-83900047D01*
X108444935Y-83739139D01*
X108575456Y-83552734D01*
X108671627Y-83346496D01*
X108730523Y-83126692D01*
X108750356Y-82900000D01*
X108730523Y-82673308D01*
X108674237Y-82463244D01*
X108671629Y-82453511D01*
X108671626Y-82453502D01*
X108644388Y-82395091D01*
X108575456Y-82247266D01*
X108444935Y-82060861D01*
X108444933Y-82060858D01*
X108284029Y-81899954D01*
X108097622Y-81769432D01*
X108097620Y-81769431D01*
X107891385Y-81673261D01*
X107891376Y-81673258D01*
X107671585Y-81614366D01*
X107671581Y-81614365D01*
X107671580Y-81614365D01*
X107671579Y-81614364D01*
X107671574Y-81614364D01*
X107444890Y-81594532D01*
X107444886Y-81594532D01*
X107218201Y-81614364D01*
X107218190Y-81614366D01*
X106998399Y-81673258D01*
X106998390Y-81673261D01*
X106792155Y-81769431D01*
X106792153Y-81769432D01*
X106605750Y-81899951D01*
X106448614Y-82057087D01*
X106387291Y-82090571D01*
X106317599Y-82085587D01*
X106261666Y-82043715D01*
X106240257Y-81997923D01*
X106238979Y-81992518D01*
X106216246Y-81931568D01*
X106188684Y-81857669D01*
X106188683Y-81857668D01*
X106188681Y-81857664D01*
X106102435Y-81742455D01*
X106102432Y-81742452D01*
X105987223Y-81656206D01*
X105987216Y-81656202D01*
X105852370Y-81605908D01*
X105852371Y-81605908D01*
X105792771Y-81599501D01*
X105792769Y-81599500D01*
X105792761Y-81599500D01*
X105792752Y-81599500D01*
X104097017Y-81599500D01*
X104097011Y-81599501D01*
X104037404Y-81605908D01*
X103902559Y-81656202D01*
X103902552Y-81656206D01*
X103787343Y-81742452D01*
X103787340Y-81742455D01*
X103701094Y-81857664D01*
X103701090Y-81857671D01*
X103650796Y-81992517D01*
X103644389Y-82052116D01*
X103644388Y-82052135D01*
X101058000Y-82052135D01*
X101058000Y-78152135D01*
X137949500Y-78152135D01*
X137949500Y-79847870D01*
X137949501Y-79847876D01*
X137955908Y-79907483D01*
X138006202Y-80042328D01*
X138006206Y-80042335D01*
X138092452Y-80157544D01*
X138092455Y-80157547D01*
X138207664Y-80243793D01*
X138207671Y-80243797D01*
X138342517Y-80294091D01*
X138342516Y-80294091D01*
X138349444Y-80294835D01*
X138402127Y-80300500D01*
X140097872Y-80300499D01*
X140157483Y-80294091D01*
X140292331Y-80243796D01*
X140407546Y-80157546D01*
X140493796Y-80042331D01*
X140544091Y-79907483D01*
X140544092Y-79907472D01*
X140545365Y-79902088D01*
X140579933Y-79841369D01*
X140641841Y-79808978D01*
X140711433Y-79815199D01*
X140753725Y-79842912D01*
X140910858Y-80000045D01*
X140910861Y-80000047D01*
X141097266Y-80130568D01*
X141303504Y-80226739D01*
X141523308Y-80285635D01*
X141685230Y-80299801D01*
X141749998Y-80305468D01*
X141750000Y-80305468D01*
X141750002Y-80305468D01*
X141806807Y-80300498D01*
X141976692Y-80285635D01*
X142196496Y-80226739D01*
X142402734Y-80130568D01*
X142589139Y-80000047D01*
X142750047Y-79839139D01*
X142880568Y-79652734D01*
X142976739Y-79446496D01*
X143035635Y-79226692D01*
X143055468Y-79000000D01*
X143054747Y-78991763D01*
X143049801Y-78935230D01*
X143035635Y-78773308D01*
X142976739Y-78553504D01*
X142880568Y-78347266D01*
X142777102Y-78199500D01*
X142750045Y-78160858D01*
X142589141Y-77999954D01*
X142402734Y-77869432D01*
X142402732Y-77869431D01*
X142196497Y-77773261D01*
X142196488Y-77773258D01*
X141976697Y-77714366D01*
X141976693Y-77714365D01*
X141976692Y-77714365D01*
X141976691Y-77714364D01*
X141976686Y-77714364D01*
X141750002Y-77694532D01*
X141749998Y-77694532D01*
X141523313Y-77714364D01*
X141523302Y-77714366D01*
X141303511Y-77773258D01*
X141303502Y-77773261D01*
X141097267Y-77869431D01*
X141097265Y-77869432D01*
X140910862Y-77999951D01*
X140753726Y-78157087D01*
X140692403Y-78190571D01*
X140622711Y-78185587D01*
X140566778Y-78143715D01*
X140545369Y-78097923D01*
X140544091Y-78092518D01*
X140493797Y-77957670D01*
X140493793Y-77957664D01*
X140407547Y-77842455D01*
X140407544Y-77842452D01*
X140292335Y-77756206D01*
X140292328Y-77756202D01*
X140157482Y-77705908D01*
X140157483Y-77705908D01*
X140097883Y-77699501D01*
X140097881Y-77699500D01*
X140097873Y-77699500D01*
X140097864Y-77699500D01*
X138402129Y-77699500D01*
X138402123Y-77699501D01*
X138342516Y-77705908D01*
X138207671Y-77756202D01*
X138207664Y-77756206D01*
X138092455Y-77842452D01*
X138092452Y-77842455D01*
X138006206Y-77957664D01*
X138006203Y-77957670D01*
X137955908Y-78092517D01*
X137949501Y-78152116D01*
X137949500Y-78152135D01*
X101058000Y-78152135D01*
X101058000Y-76932798D01*
X101077685Y-76865759D01*
X101130489Y-76820004D01*
X101199647Y-76810060D01*
X101263203Y-76839085D01*
X101277539Y-76853752D01*
X101407669Y-77011052D01*
X101407674Y-77011058D01*
X101643172Y-77232204D01*
X101643182Y-77232212D01*
X101904529Y-77422092D01*
X101904547Y-77422104D01*
X102187647Y-77577739D01*
X102187655Y-77577743D01*
X102368356Y-77649287D01*
X102488027Y-77696668D01*
X102800945Y-77777012D01*
X102868186Y-77785506D01*
X103121452Y-77817502D01*
X103121461Y-77817502D01*
X103121464Y-77817503D01*
X103121466Y-77817503D01*
X103444530Y-77817503D01*
X103444532Y-77817503D01*
X103444535Y-77817502D01*
X103444543Y-77817502D01*
X103635797Y-77793340D01*
X103765051Y-77777012D01*
X104077969Y-77696668D01*
X104273321Y-77619322D01*
X104378340Y-77577743D01*
X104378344Y-77577740D01*
X104378349Y-77577739D01*
X104661455Y-77422100D01*
X104922822Y-77232206D01*
X105097963Y-77067737D01*
X105158321Y-77011058D01*
X105158322Y-77011056D01*
X105158327Y-77011052D01*
X105364258Y-76762124D01*
X105537366Y-76489349D01*
X105674921Y-76197029D01*
X105774755Y-75889774D01*
X105835291Y-75572430D01*
X105835292Y-75572419D01*
X105855577Y-75250005D01*
X105855577Y-75249994D01*
X105835292Y-74927580D01*
X105835291Y-74927573D01*
X105835291Y-74927570D01*
X105774755Y-74610226D01*
X105674921Y-74302971D01*
X105537366Y-74010651D01*
X105421269Y-73827711D01*
X105364261Y-73737880D01*
X105335226Y-73702783D01*
X105158327Y-73488948D01*
X105158325Y-73488946D01*
X105158321Y-73488941D01*
X104922823Y-73267795D01*
X104922820Y-73267792D01*
X104863671Y-73224818D01*
X104821006Y-73169488D01*
X104815027Y-73099875D01*
X104847633Y-73038080D01*
X104908472Y-73003722D01*
X104936557Y-73000500D01*
X190861414Y-73000500D01*
X190928453Y-73020185D01*
G37*
%TD.AperFunction*%
%TD*%
M02*
