%TF.GenerationSoftware,KiCad,Pcbnew,8.0.8*%
%TF.CreationDate,2026-07-18T19:08:06+05:30*%
%TF.ProjectId,400W Amplifier,34303057-2041-46d7-906c-69666965722e,rev?*%
%TF.SameCoordinates,Original*%
%TF.FileFunction,Drillmap*%
%TF.FilePolarity,Positive*%
%FSLAX45Y45*%
G04 Gerber Fmt 4.5, Leading zero omitted, Abs format (unit mm)*
G04 Created by KiCad (PCBNEW 8.0.8) date 2026-07-18 19:08:06*
%MOMM*%
%LPD*%
G01*
G04 APERTURE LIST*
%ADD10C,0.050000*%
%ADD11C,0.200000*%
%ADD12C,0.170000*%
G04 APERTURE END LIST*
D10*
X19465000Y-7520000D02*
G75*
G02*
X19051600Y-7520000I-206700J0D01*
G01*
X19051600Y-7520000D02*
G75*
G02*
X19465000Y-7520000I206700J0D01*
G01*
X10535000Y-7525000D02*
G75*
G02*
X10121600Y-7525000I-206700J0D01*
G01*
X10121600Y-7525000D02*
G75*
G02*
X10535000Y-7525000I206700J0D01*
G01*
X19486700Y-11298300D02*
G75*
G02*
X19073300Y-11298300I-206700J0D01*
G01*
X19073300Y-11298300D02*
G75*
G02*
X19486700Y-11298300I206700J0D01*
G01*
X10055750Y-7250000D02*
X19525350Y-7250000D01*
X19525350Y-11552500D01*
X10055750Y-11552500D01*
X10055750Y-7250000D01*
X10535000Y-11300000D02*
G75*
G02*
X10121600Y-11300000I-206700J0D01*
G01*
X10121600Y-11300000D02*
G75*
G02*
X10535000Y-11300000I206700J0D01*
G01*
D11*
D12*
X10320000Y-9260000D02*
X10490000Y-9430000D01*
X10490000Y-9260000D02*
X10320000Y-9430000D01*
X11020000Y-9260000D02*
X11190000Y-9430000D01*
X11190000Y-9260000D02*
X11020000Y-9430000D01*
D11*
X10314027Y-11866484D02*
X10314027Y-11666484D01*
X10314027Y-11666484D02*
X10361646Y-11666484D01*
X10361646Y-11666484D02*
X10390217Y-11676008D01*
X10390217Y-11676008D02*
X10409265Y-11695055D01*
X10409265Y-11695055D02*
X10418789Y-11714103D01*
X10418789Y-11714103D02*
X10428313Y-11752198D01*
X10428313Y-11752198D02*
X10428313Y-11780769D01*
X10428313Y-11780769D02*
X10418789Y-11818865D01*
X10418789Y-11818865D02*
X10409265Y-11837912D01*
X10409265Y-11837912D02*
X10390217Y-11856960D01*
X10390217Y-11856960D02*
X10361646Y-11866484D01*
X10361646Y-11866484D02*
X10314027Y-11866484D01*
X10514027Y-11866484D02*
X10514027Y-11733150D01*
X10514027Y-11771246D02*
X10523551Y-11752198D01*
X10523551Y-11752198D02*
X10533074Y-11742674D01*
X10533074Y-11742674D02*
X10552122Y-11733150D01*
X10552122Y-11733150D02*
X10571170Y-11733150D01*
X10637836Y-11866484D02*
X10637836Y-11733150D01*
X10637836Y-11666484D02*
X10628313Y-11676008D01*
X10628313Y-11676008D02*
X10637836Y-11685531D01*
X10637836Y-11685531D02*
X10647360Y-11676008D01*
X10647360Y-11676008D02*
X10637836Y-11666484D01*
X10637836Y-11666484D02*
X10637836Y-11685531D01*
X10761646Y-11866484D02*
X10742598Y-11856960D01*
X10742598Y-11856960D02*
X10733074Y-11837912D01*
X10733074Y-11837912D02*
X10733074Y-11666484D01*
X10866408Y-11866484D02*
X10847360Y-11856960D01*
X10847360Y-11856960D02*
X10837836Y-11837912D01*
X10837836Y-11837912D02*
X10837836Y-11666484D01*
X11094979Y-11866484D02*
X11094979Y-11666484D01*
X11094979Y-11666484D02*
X11161646Y-11809341D01*
X11161646Y-11809341D02*
X11228312Y-11666484D01*
X11228312Y-11666484D02*
X11228312Y-11866484D01*
X11409265Y-11866484D02*
X11409265Y-11761722D01*
X11409265Y-11761722D02*
X11399741Y-11742674D01*
X11399741Y-11742674D02*
X11380693Y-11733150D01*
X11380693Y-11733150D02*
X11342598Y-11733150D01*
X11342598Y-11733150D02*
X11323551Y-11742674D01*
X11409265Y-11856960D02*
X11390217Y-11866484D01*
X11390217Y-11866484D02*
X11342598Y-11866484D01*
X11342598Y-11866484D02*
X11323551Y-11856960D01*
X11323551Y-11856960D02*
X11314027Y-11837912D01*
X11314027Y-11837912D02*
X11314027Y-11818865D01*
X11314027Y-11818865D02*
X11323551Y-11799817D01*
X11323551Y-11799817D02*
X11342598Y-11790293D01*
X11342598Y-11790293D02*
X11390217Y-11790293D01*
X11390217Y-11790293D02*
X11409265Y-11780769D01*
X11504503Y-11733150D02*
X11504503Y-11933150D01*
X11504503Y-11742674D02*
X11523551Y-11733150D01*
X11523551Y-11733150D02*
X11561646Y-11733150D01*
X11561646Y-11733150D02*
X11580693Y-11742674D01*
X11580693Y-11742674D02*
X11590217Y-11752198D01*
X11590217Y-11752198D02*
X11599741Y-11771246D01*
X11599741Y-11771246D02*
X11599741Y-11828388D01*
X11599741Y-11828388D02*
X11590217Y-11847436D01*
X11590217Y-11847436D02*
X11580693Y-11856960D01*
X11580693Y-11856960D02*
X11561646Y-11866484D01*
X11561646Y-11866484D02*
X11523551Y-11866484D01*
X11523551Y-11866484D02*
X11504503Y-11856960D01*
X11685455Y-11847436D02*
X11694979Y-11856960D01*
X11694979Y-11856960D02*
X11685455Y-11866484D01*
X11685455Y-11866484D02*
X11675932Y-11856960D01*
X11675932Y-11856960D02*
X11685455Y-11847436D01*
X11685455Y-11847436D02*
X11685455Y-11866484D01*
X11685455Y-11742674D02*
X11694979Y-11752198D01*
X11694979Y-11752198D02*
X11685455Y-11761722D01*
X11685455Y-11761722D02*
X11675932Y-11752198D01*
X11675932Y-11752198D02*
X11685455Y-11742674D01*
X11685455Y-11742674D02*
X11685455Y-11761722D01*
D12*
X9883250Y-12110000D02*
X10053250Y-12280000D01*
X10053250Y-12110000D02*
X9883250Y-12280000D01*
D11*
X10418789Y-12286484D02*
X10304503Y-12286484D01*
X10361646Y-12286484D02*
X10361646Y-12086484D01*
X10361646Y-12086484D02*
X10342598Y-12115055D01*
X10342598Y-12115055D02*
X10323551Y-12134103D01*
X10323551Y-12134103D02*
X10304503Y-12143627D01*
X10504503Y-12267436D02*
X10514027Y-12276960D01*
X10514027Y-12276960D02*
X10504503Y-12286484D01*
X10504503Y-12286484D02*
X10494979Y-12276960D01*
X10494979Y-12276960D02*
X10504503Y-12267436D01*
X10504503Y-12267436D02*
X10504503Y-12286484D01*
X10580694Y-12086484D02*
X10714027Y-12086484D01*
X10714027Y-12086484D02*
X10628313Y-12286484D01*
X10828313Y-12086484D02*
X10847360Y-12086484D01*
X10847360Y-12086484D02*
X10866408Y-12096008D01*
X10866408Y-12096008D02*
X10875932Y-12105531D01*
X10875932Y-12105531D02*
X10885455Y-12124579D01*
X10885455Y-12124579D02*
X10894979Y-12162674D01*
X10894979Y-12162674D02*
X10894979Y-12210293D01*
X10894979Y-12210293D02*
X10885455Y-12248388D01*
X10885455Y-12248388D02*
X10875932Y-12267436D01*
X10875932Y-12267436D02*
X10866408Y-12276960D01*
X10866408Y-12276960D02*
X10847360Y-12286484D01*
X10847360Y-12286484D02*
X10828313Y-12286484D01*
X10828313Y-12286484D02*
X10809265Y-12276960D01*
X10809265Y-12276960D02*
X10799741Y-12267436D01*
X10799741Y-12267436D02*
X10790217Y-12248388D01*
X10790217Y-12248388D02*
X10780694Y-12210293D01*
X10780694Y-12210293D02*
X10780694Y-12162674D01*
X10780694Y-12162674D02*
X10790217Y-12124579D01*
X10790217Y-12124579D02*
X10799741Y-12105531D01*
X10799741Y-12105531D02*
X10809265Y-12096008D01*
X10809265Y-12096008D02*
X10828313Y-12086484D01*
X11018789Y-12086484D02*
X11037836Y-12086484D01*
X11037836Y-12086484D02*
X11056884Y-12096008D01*
X11056884Y-12096008D02*
X11066408Y-12105531D01*
X11066408Y-12105531D02*
X11075932Y-12124579D01*
X11075932Y-12124579D02*
X11085455Y-12162674D01*
X11085455Y-12162674D02*
X11085455Y-12210293D01*
X11085455Y-12210293D02*
X11075932Y-12248388D01*
X11075932Y-12248388D02*
X11066408Y-12267436D01*
X11066408Y-12267436D02*
X11056884Y-12276960D01*
X11056884Y-12276960D02*
X11037836Y-12286484D01*
X11037836Y-12286484D02*
X11018789Y-12286484D01*
X11018789Y-12286484D02*
X10999741Y-12276960D01*
X10999741Y-12276960D02*
X10990217Y-12267436D01*
X10990217Y-12267436D02*
X10980694Y-12248388D01*
X10980694Y-12248388D02*
X10971170Y-12210293D01*
X10971170Y-12210293D02*
X10971170Y-12162674D01*
X10971170Y-12162674D02*
X10980694Y-12124579D01*
X10980694Y-12124579D02*
X10990217Y-12105531D01*
X10990217Y-12105531D02*
X10999741Y-12096008D01*
X10999741Y-12096008D02*
X11018789Y-12086484D01*
X11171170Y-12286484D02*
X11171170Y-12153150D01*
X11171170Y-12172198D02*
X11180694Y-12162674D01*
X11180694Y-12162674D02*
X11199741Y-12153150D01*
X11199741Y-12153150D02*
X11228313Y-12153150D01*
X11228313Y-12153150D02*
X11247360Y-12162674D01*
X11247360Y-12162674D02*
X11256884Y-12181722D01*
X11256884Y-12181722D02*
X11256884Y-12286484D01*
X11256884Y-12181722D02*
X11266408Y-12162674D01*
X11266408Y-12162674D02*
X11285455Y-12153150D01*
X11285455Y-12153150D02*
X11314027Y-12153150D01*
X11314027Y-12153150D02*
X11333074Y-12162674D01*
X11333074Y-12162674D02*
X11342598Y-12181722D01*
X11342598Y-12181722D02*
X11342598Y-12286484D01*
X11437836Y-12286484D02*
X11437836Y-12153150D01*
X11437836Y-12172198D02*
X11447360Y-12162674D01*
X11447360Y-12162674D02*
X11466408Y-12153150D01*
X11466408Y-12153150D02*
X11494979Y-12153150D01*
X11494979Y-12153150D02*
X11514027Y-12162674D01*
X11514027Y-12162674D02*
X11523551Y-12181722D01*
X11523551Y-12181722D02*
X11523551Y-12286484D01*
X11523551Y-12181722D02*
X11533074Y-12162674D01*
X11533074Y-12162674D02*
X11552122Y-12153150D01*
X11552122Y-12153150D02*
X11580693Y-12153150D01*
X11580693Y-12153150D02*
X11599741Y-12162674D01*
X11599741Y-12162674D02*
X11609265Y-12181722D01*
X11609265Y-12181722D02*
X11609265Y-12286484D01*
X11999741Y-12076960D02*
X11828313Y-12334103D01*
X12256884Y-12086484D02*
X12275932Y-12086484D01*
X12275932Y-12086484D02*
X12294979Y-12096008D01*
X12294979Y-12096008D02*
X12304503Y-12105531D01*
X12304503Y-12105531D02*
X12314027Y-12124579D01*
X12314027Y-12124579D02*
X12323551Y-12162674D01*
X12323551Y-12162674D02*
X12323551Y-12210293D01*
X12323551Y-12210293D02*
X12314027Y-12248388D01*
X12314027Y-12248388D02*
X12304503Y-12267436D01*
X12304503Y-12267436D02*
X12294979Y-12276960D01*
X12294979Y-12276960D02*
X12275932Y-12286484D01*
X12275932Y-12286484D02*
X12256884Y-12286484D01*
X12256884Y-12286484D02*
X12237836Y-12276960D01*
X12237836Y-12276960D02*
X12228313Y-12267436D01*
X12228313Y-12267436D02*
X12218789Y-12248388D01*
X12218789Y-12248388D02*
X12209265Y-12210293D01*
X12209265Y-12210293D02*
X12209265Y-12162674D01*
X12209265Y-12162674D02*
X12218789Y-12124579D01*
X12218789Y-12124579D02*
X12228313Y-12105531D01*
X12228313Y-12105531D02*
X12237836Y-12096008D01*
X12237836Y-12096008D02*
X12256884Y-12086484D01*
X12409265Y-12267436D02*
X12418789Y-12276960D01*
X12418789Y-12276960D02*
X12409265Y-12286484D01*
X12409265Y-12286484D02*
X12399741Y-12276960D01*
X12399741Y-12276960D02*
X12409265Y-12267436D01*
X12409265Y-12267436D02*
X12409265Y-12286484D01*
X12542598Y-12086484D02*
X12561646Y-12086484D01*
X12561646Y-12086484D02*
X12580694Y-12096008D01*
X12580694Y-12096008D02*
X12590217Y-12105531D01*
X12590217Y-12105531D02*
X12599741Y-12124579D01*
X12599741Y-12124579D02*
X12609265Y-12162674D01*
X12609265Y-12162674D02*
X12609265Y-12210293D01*
X12609265Y-12210293D02*
X12599741Y-12248388D01*
X12599741Y-12248388D02*
X12590217Y-12267436D01*
X12590217Y-12267436D02*
X12580694Y-12276960D01*
X12580694Y-12276960D02*
X12561646Y-12286484D01*
X12561646Y-12286484D02*
X12542598Y-12286484D01*
X12542598Y-12286484D02*
X12523551Y-12276960D01*
X12523551Y-12276960D02*
X12514027Y-12267436D01*
X12514027Y-12267436D02*
X12504503Y-12248388D01*
X12504503Y-12248388D02*
X12494979Y-12210293D01*
X12494979Y-12210293D02*
X12494979Y-12162674D01*
X12494979Y-12162674D02*
X12504503Y-12124579D01*
X12504503Y-12124579D02*
X12514027Y-12105531D01*
X12514027Y-12105531D02*
X12523551Y-12096008D01*
X12523551Y-12096008D02*
X12542598Y-12086484D01*
X12780694Y-12086484D02*
X12742598Y-12086484D01*
X12742598Y-12086484D02*
X12723551Y-12096008D01*
X12723551Y-12096008D02*
X12714027Y-12105531D01*
X12714027Y-12105531D02*
X12694979Y-12134103D01*
X12694979Y-12134103D02*
X12685456Y-12172198D01*
X12685456Y-12172198D02*
X12685456Y-12248388D01*
X12685456Y-12248388D02*
X12694979Y-12267436D01*
X12694979Y-12267436D02*
X12704503Y-12276960D01*
X12704503Y-12276960D02*
X12723551Y-12286484D01*
X12723551Y-12286484D02*
X12761646Y-12286484D01*
X12761646Y-12286484D02*
X12780694Y-12276960D01*
X12780694Y-12276960D02*
X12790217Y-12267436D01*
X12790217Y-12267436D02*
X12799741Y-12248388D01*
X12799741Y-12248388D02*
X12799741Y-12200769D01*
X12799741Y-12200769D02*
X12790217Y-12181722D01*
X12790217Y-12181722D02*
X12780694Y-12172198D01*
X12780694Y-12172198D02*
X12761646Y-12162674D01*
X12761646Y-12162674D02*
X12723551Y-12162674D01*
X12723551Y-12162674D02*
X12704503Y-12172198D01*
X12704503Y-12172198D02*
X12694979Y-12181722D01*
X12694979Y-12181722D02*
X12685456Y-12200769D01*
X12971170Y-12086484D02*
X12933075Y-12086484D01*
X12933075Y-12086484D02*
X12914027Y-12096008D01*
X12914027Y-12096008D02*
X12904503Y-12105531D01*
X12904503Y-12105531D02*
X12885456Y-12134103D01*
X12885456Y-12134103D02*
X12875932Y-12172198D01*
X12875932Y-12172198D02*
X12875932Y-12248388D01*
X12875932Y-12248388D02*
X12885456Y-12267436D01*
X12885456Y-12267436D02*
X12894979Y-12276960D01*
X12894979Y-12276960D02*
X12914027Y-12286484D01*
X12914027Y-12286484D02*
X12952122Y-12286484D01*
X12952122Y-12286484D02*
X12971170Y-12276960D01*
X12971170Y-12276960D02*
X12980694Y-12267436D01*
X12980694Y-12267436D02*
X12990217Y-12248388D01*
X12990217Y-12248388D02*
X12990217Y-12200769D01*
X12990217Y-12200769D02*
X12980694Y-12181722D01*
X12980694Y-12181722D02*
X12971170Y-12172198D01*
X12971170Y-12172198D02*
X12952122Y-12162674D01*
X12952122Y-12162674D02*
X12914027Y-12162674D01*
X12914027Y-12162674D02*
X12894979Y-12172198D01*
X12894979Y-12172198D02*
X12885456Y-12181722D01*
X12885456Y-12181722D02*
X12875932Y-12200769D01*
X13085456Y-12286484D02*
X13123551Y-12286484D01*
X13123551Y-12286484D02*
X13142598Y-12276960D01*
X13142598Y-12276960D02*
X13152122Y-12267436D01*
X13152122Y-12267436D02*
X13171170Y-12238865D01*
X13171170Y-12238865D02*
X13180694Y-12200769D01*
X13180694Y-12200769D02*
X13180694Y-12124579D01*
X13180694Y-12124579D02*
X13171170Y-12105531D01*
X13171170Y-12105531D02*
X13161646Y-12096008D01*
X13161646Y-12096008D02*
X13142598Y-12086484D01*
X13142598Y-12086484D02*
X13104503Y-12086484D01*
X13104503Y-12086484D02*
X13085456Y-12096008D01*
X13085456Y-12096008D02*
X13075932Y-12105531D01*
X13075932Y-12105531D02*
X13066408Y-12124579D01*
X13066408Y-12124579D02*
X13066408Y-12172198D01*
X13066408Y-12172198D02*
X13075932Y-12191246D01*
X13075932Y-12191246D02*
X13085456Y-12200769D01*
X13085456Y-12200769D02*
X13104503Y-12210293D01*
X13104503Y-12210293D02*
X13142598Y-12210293D01*
X13142598Y-12210293D02*
X13161646Y-12200769D01*
X13161646Y-12200769D02*
X13171170Y-12191246D01*
X13171170Y-12191246D02*
X13180694Y-12172198D01*
X13256884Y-12086484D02*
X13256884Y-12124579D01*
X13333075Y-12086484D02*
X13333075Y-12124579D01*
X13628313Y-12362674D02*
X13618789Y-12353150D01*
X13618789Y-12353150D02*
X13599741Y-12324579D01*
X13599741Y-12324579D02*
X13590218Y-12305531D01*
X13590218Y-12305531D02*
X13580694Y-12276960D01*
X13580694Y-12276960D02*
X13571170Y-12229341D01*
X13571170Y-12229341D02*
X13571170Y-12191246D01*
X13571170Y-12191246D02*
X13580694Y-12143627D01*
X13580694Y-12143627D02*
X13590218Y-12115055D01*
X13590218Y-12115055D02*
X13599741Y-12096008D01*
X13599741Y-12096008D02*
X13618789Y-12067436D01*
X13618789Y-12067436D02*
X13628313Y-12057912D01*
X13694979Y-12105531D02*
X13704503Y-12096008D01*
X13704503Y-12096008D02*
X13723551Y-12086484D01*
X13723551Y-12086484D02*
X13771170Y-12086484D01*
X13771170Y-12086484D02*
X13790218Y-12096008D01*
X13790218Y-12096008D02*
X13799741Y-12105531D01*
X13799741Y-12105531D02*
X13809265Y-12124579D01*
X13809265Y-12124579D02*
X13809265Y-12143627D01*
X13809265Y-12143627D02*
X13799741Y-12172198D01*
X13799741Y-12172198D02*
X13685456Y-12286484D01*
X13685456Y-12286484D02*
X13809265Y-12286484D01*
X14047360Y-12286484D02*
X14047360Y-12086484D01*
X14133075Y-12286484D02*
X14133075Y-12181722D01*
X14133075Y-12181722D02*
X14123551Y-12162674D01*
X14123551Y-12162674D02*
X14104503Y-12153150D01*
X14104503Y-12153150D02*
X14075932Y-12153150D01*
X14075932Y-12153150D02*
X14056884Y-12162674D01*
X14056884Y-12162674D02*
X14047360Y-12172198D01*
X14256884Y-12286484D02*
X14237837Y-12276960D01*
X14237837Y-12276960D02*
X14228313Y-12267436D01*
X14228313Y-12267436D02*
X14218789Y-12248388D01*
X14218789Y-12248388D02*
X14218789Y-12191246D01*
X14218789Y-12191246D02*
X14228313Y-12172198D01*
X14228313Y-12172198D02*
X14237837Y-12162674D01*
X14237837Y-12162674D02*
X14256884Y-12153150D01*
X14256884Y-12153150D02*
X14285456Y-12153150D01*
X14285456Y-12153150D02*
X14304503Y-12162674D01*
X14304503Y-12162674D02*
X14314027Y-12172198D01*
X14314027Y-12172198D02*
X14323551Y-12191246D01*
X14323551Y-12191246D02*
X14323551Y-12248388D01*
X14323551Y-12248388D02*
X14314027Y-12267436D01*
X14314027Y-12267436D02*
X14304503Y-12276960D01*
X14304503Y-12276960D02*
X14285456Y-12286484D01*
X14285456Y-12286484D02*
X14256884Y-12286484D01*
X14437837Y-12286484D02*
X14418789Y-12276960D01*
X14418789Y-12276960D02*
X14409265Y-12257912D01*
X14409265Y-12257912D02*
X14409265Y-12086484D01*
X14590218Y-12276960D02*
X14571170Y-12286484D01*
X14571170Y-12286484D02*
X14533075Y-12286484D01*
X14533075Y-12286484D02*
X14514027Y-12276960D01*
X14514027Y-12276960D02*
X14504503Y-12257912D01*
X14504503Y-12257912D02*
X14504503Y-12181722D01*
X14504503Y-12181722D02*
X14514027Y-12162674D01*
X14514027Y-12162674D02*
X14533075Y-12153150D01*
X14533075Y-12153150D02*
X14571170Y-12153150D01*
X14571170Y-12153150D02*
X14590218Y-12162674D01*
X14590218Y-12162674D02*
X14599741Y-12181722D01*
X14599741Y-12181722D02*
X14599741Y-12200769D01*
X14599741Y-12200769D02*
X14504503Y-12219817D01*
X14675932Y-12276960D02*
X14694980Y-12286484D01*
X14694980Y-12286484D02*
X14733075Y-12286484D01*
X14733075Y-12286484D02*
X14752122Y-12276960D01*
X14752122Y-12276960D02*
X14761646Y-12257912D01*
X14761646Y-12257912D02*
X14761646Y-12248388D01*
X14761646Y-12248388D02*
X14752122Y-12229341D01*
X14752122Y-12229341D02*
X14733075Y-12219817D01*
X14733075Y-12219817D02*
X14704503Y-12219817D01*
X14704503Y-12219817D02*
X14685456Y-12210293D01*
X14685456Y-12210293D02*
X14675932Y-12191246D01*
X14675932Y-12191246D02*
X14675932Y-12181722D01*
X14675932Y-12181722D02*
X14685456Y-12162674D01*
X14685456Y-12162674D02*
X14704503Y-12153150D01*
X14704503Y-12153150D02*
X14733075Y-12153150D01*
X14733075Y-12153150D02*
X14752122Y-12162674D01*
X14828313Y-12362674D02*
X14837837Y-12353150D01*
X14837837Y-12353150D02*
X14856884Y-12324579D01*
X14856884Y-12324579D02*
X14866408Y-12305531D01*
X14866408Y-12305531D02*
X14875932Y-12276960D01*
X14875932Y-12276960D02*
X14885456Y-12229341D01*
X14885456Y-12229341D02*
X14885456Y-12191246D01*
X14885456Y-12191246D02*
X14875932Y-12143627D01*
X14875932Y-12143627D02*
X14866408Y-12115055D01*
X14866408Y-12115055D02*
X14856884Y-12096008D01*
X14856884Y-12096008D02*
X14837837Y-12067436D01*
X14837837Y-12067436D02*
X14828313Y-12057912D01*
X15190218Y-12362674D02*
X15180694Y-12353150D01*
X15180694Y-12353150D02*
X15161646Y-12324579D01*
X15161646Y-12324579D02*
X15152122Y-12305531D01*
X15152122Y-12305531D02*
X15142599Y-12276960D01*
X15142599Y-12276960D02*
X15133075Y-12229341D01*
X15133075Y-12229341D02*
X15133075Y-12191246D01*
X15133075Y-12191246D02*
X15142599Y-12143627D01*
X15142599Y-12143627D02*
X15152122Y-12115055D01*
X15152122Y-12115055D02*
X15161646Y-12096008D01*
X15161646Y-12096008D02*
X15180694Y-12067436D01*
X15180694Y-12067436D02*
X15190218Y-12057912D01*
X15266408Y-12153150D02*
X15266408Y-12286484D01*
X15266408Y-12172198D02*
X15275932Y-12162674D01*
X15275932Y-12162674D02*
X15294980Y-12153150D01*
X15294980Y-12153150D02*
X15323551Y-12153150D01*
X15323551Y-12153150D02*
X15342599Y-12162674D01*
X15342599Y-12162674D02*
X15352122Y-12181722D01*
X15352122Y-12181722D02*
X15352122Y-12286484D01*
X15475932Y-12286484D02*
X15456884Y-12276960D01*
X15456884Y-12276960D02*
X15447361Y-12267436D01*
X15447361Y-12267436D02*
X15437837Y-12248388D01*
X15437837Y-12248388D02*
X15437837Y-12191246D01*
X15437837Y-12191246D02*
X15447361Y-12172198D01*
X15447361Y-12172198D02*
X15456884Y-12162674D01*
X15456884Y-12162674D02*
X15475932Y-12153150D01*
X15475932Y-12153150D02*
X15504503Y-12153150D01*
X15504503Y-12153150D02*
X15523551Y-12162674D01*
X15523551Y-12162674D02*
X15533075Y-12172198D01*
X15533075Y-12172198D02*
X15542599Y-12191246D01*
X15542599Y-12191246D02*
X15542599Y-12248388D01*
X15542599Y-12248388D02*
X15533075Y-12267436D01*
X15533075Y-12267436D02*
X15523551Y-12276960D01*
X15523551Y-12276960D02*
X15504503Y-12286484D01*
X15504503Y-12286484D02*
X15475932Y-12286484D01*
X15599742Y-12153150D02*
X15675932Y-12153150D01*
X15628313Y-12086484D02*
X15628313Y-12257912D01*
X15628313Y-12257912D02*
X15637837Y-12276960D01*
X15637837Y-12276960D02*
X15656884Y-12286484D01*
X15656884Y-12286484D02*
X15675932Y-12286484D01*
X15894980Y-12153150D02*
X15894980Y-12353150D01*
X15894980Y-12162674D02*
X15914027Y-12153150D01*
X15914027Y-12153150D02*
X15952123Y-12153150D01*
X15952123Y-12153150D02*
X15971170Y-12162674D01*
X15971170Y-12162674D02*
X15980694Y-12172198D01*
X15980694Y-12172198D02*
X15990218Y-12191246D01*
X15990218Y-12191246D02*
X15990218Y-12248388D01*
X15990218Y-12248388D02*
X15980694Y-12267436D01*
X15980694Y-12267436D02*
X15971170Y-12276960D01*
X15971170Y-12276960D02*
X15952123Y-12286484D01*
X15952123Y-12286484D02*
X15914027Y-12286484D01*
X15914027Y-12286484D02*
X15894980Y-12276960D01*
X16104503Y-12286484D02*
X16085456Y-12276960D01*
X16085456Y-12276960D02*
X16075932Y-12257912D01*
X16075932Y-12257912D02*
X16075932Y-12086484D01*
X16266408Y-12286484D02*
X16266408Y-12181722D01*
X16266408Y-12181722D02*
X16256884Y-12162674D01*
X16256884Y-12162674D02*
X16237837Y-12153150D01*
X16237837Y-12153150D02*
X16199742Y-12153150D01*
X16199742Y-12153150D02*
X16180694Y-12162674D01*
X16266408Y-12276960D02*
X16247361Y-12286484D01*
X16247361Y-12286484D02*
X16199742Y-12286484D01*
X16199742Y-12286484D02*
X16180694Y-12276960D01*
X16180694Y-12276960D02*
X16171170Y-12257912D01*
X16171170Y-12257912D02*
X16171170Y-12238865D01*
X16171170Y-12238865D02*
X16180694Y-12219817D01*
X16180694Y-12219817D02*
X16199742Y-12210293D01*
X16199742Y-12210293D02*
X16247361Y-12210293D01*
X16247361Y-12210293D02*
X16266408Y-12200769D01*
X16333075Y-12153150D02*
X16409265Y-12153150D01*
X16361646Y-12086484D02*
X16361646Y-12257912D01*
X16361646Y-12257912D02*
X16371170Y-12276960D01*
X16371170Y-12276960D02*
X16390218Y-12286484D01*
X16390218Y-12286484D02*
X16409265Y-12286484D01*
X16552123Y-12276960D02*
X16533075Y-12286484D01*
X16533075Y-12286484D02*
X16494980Y-12286484D01*
X16494980Y-12286484D02*
X16475932Y-12276960D01*
X16475932Y-12276960D02*
X16466408Y-12257912D01*
X16466408Y-12257912D02*
X16466408Y-12181722D01*
X16466408Y-12181722D02*
X16475932Y-12162674D01*
X16475932Y-12162674D02*
X16494980Y-12153150D01*
X16494980Y-12153150D02*
X16533075Y-12153150D01*
X16533075Y-12153150D02*
X16552123Y-12162674D01*
X16552123Y-12162674D02*
X16561646Y-12181722D01*
X16561646Y-12181722D02*
X16561646Y-12200769D01*
X16561646Y-12200769D02*
X16466408Y-12219817D01*
X16733075Y-12286484D02*
X16733075Y-12086484D01*
X16733075Y-12276960D02*
X16714027Y-12286484D01*
X16714027Y-12286484D02*
X16675932Y-12286484D01*
X16675932Y-12286484D02*
X16656884Y-12276960D01*
X16656884Y-12276960D02*
X16647361Y-12267436D01*
X16647361Y-12267436D02*
X16637837Y-12248388D01*
X16637837Y-12248388D02*
X16637837Y-12191246D01*
X16637837Y-12191246D02*
X16647361Y-12172198D01*
X16647361Y-12172198D02*
X16656884Y-12162674D01*
X16656884Y-12162674D02*
X16675932Y-12153150D01*
X16675932Y-12153150D02*
X16714027Y-12153150D01*
X16714027Y-12153150D02*
X16733075Y-12162674D01*
X16809266Y-12362674D02*
X16818789Y-12353150D01*
X16818789Y-12353150D02*
X16837837Y-12324579D01*
X16837837Y-12324579D02*
X16847361Y-12305531D01*
X16847361Y-12305531D02*
X16856885Y-12276960D01*
X16856885Y-12276960D02*
X16866408Y-12229341D01*
X16866408Y-12229341D02*
X16866408Y-12191246D01*
X16866408Y-12191246D02*
X16856885Y-12143627D01*
X16856885Y-12143627D02*
X16847361Y-12115055D01*
X16847361Y-12115055D02*
X16837837Y-12096008D01*
X16837837Y-12096008D02*
X16818789Y-12067436D01*
X16818789Y-12067436D02*
X16809266Y-12057912D01*
M02*
